<?xml version="1.0" encoding="UTF-8"?>
<svg id="Layer_2" data-name="Layer 2" xmlns="http://www.w3.org/2000/svg" xmlns:xlink="http://www.w3.org/1999/xlink" viewBox="0 0 923 519.19">
  <defs>
    <style>
      .cls-1 {
        clip-path: url(#clippath);
      }

      .cls-2 {
        fill: none;
      }

      .cls-2, .cls-3, .cls-4, .cls-5 {
        stroke-width: 0px;
      }

      .cls-6 {
        mask: url(#mask);
      }

      .cls-7 {
        clip-path: url(#clippath-1);
      }

      .cls-8 {
        clip-path: url(#clippath-4);
      }

      .cls-9 {
        clip-path: url(#clippath-3);
      }

      .cls-10 {
        clip-path: url(#clippath-2);
      }

      .cls-11 {
        clip-path: url(#clippath-5);
      }

      .cls-12 {
        isolation: isolate;
      }

      .cls-4 {
        fill: #2638c4;
      }

      .cls-5 {
        fill: #fff;
      }
    </style>
    <clipPath id="clippath">
      <rect class="cls-2" width="923" height="519.19"/>
    </clipPath>
    <clipPath id="clippath-1">
      <rect class="cls-2" width="923" height="519.19"/>
    </clipPath>
    <clipPath id="clippath-2">
      <rect class="cls-2" width="923" height="519.19"/>
    </clipPath>
    <clipPath id="clippath-3">
      <rect class="cls-2" x="245.91" y="167.79" width="431.56" height="152.88"/>
    </clipPath>
    <mask id="mask" x="0" y="0" width="923" height="519.19" maskUnits="userSpaceOnUse">
      <g>
        <rect class="cls-3" x="245.91" y="167.79" width="431.56" height="152.88"/>
        <g class="cls-12">
          <g class="cls-9">
            <rect class="cls-5" width="923" height="519.19"/>
          </g>
        </g>
      </g>
    </mask>
    <clipPath id="clippath-4">
      <rect class="cls-2" x="245.91" y="167.79" width="431.56" height="152.88"/>
    </clipPath>
    <clipPath id="clippath-5">
      <rect class="cls-2" x="251.17" y="167.79" width="196.62" height="70.03"/>
    </clipPath>
  </defs>
  <g id="Layer_1-2" data-name="Layer 1">
    <g id="MPRIv22_Logo_NoContainer_RGB">
      <g class="cls-1">
        <g class="cls-7">
          <g class="cls-10">
            <g class="cls-6">
              <g class="cls-8">
                <polygon class="cls-5" points="260.84 234.77 284.87 234.77 269.93 319.42 245.91 319.42 260.84 234.77"/>
                <polygon class="cls-5" points="389.18 234.77 374.24 319.42 351.96 319.42 359.8 275.35 335.41 304.61 329.18 304.61 315.36 275.6 307.65 319.42 285.49 319.42 300.43 234.77 320.97 234.77 337.9 272.37 368.64 234.77 389.18 234.77"/>
                <path class="cls-5" d="M453.16,241.56c5.39,4.52,8.09,10.98,8.09,19.36,0,6.72-1.56,12.53-4.67,17.43-3.11,4.9-7.41,8.63-12.88,11.2-5.48,2.57-11.66,3.86-18.55,3.86h-6.72l-4.61,26.02h-24.02l14.94-84.64h25.02c10.21,0,18.01,2.26,23.4,6.78M433.43,271.06c2.03-2.28,3.05-5.29,3.05-9.02,0-2.82-.79-4.94-2.37-6.35-1.58-1.41-3.65-2.12-6.22-2.12h-2.49l-3.61,20.91h3.11c3.65,0,6.49-1.14,8.53-3.42"/>
                <path class="cls-5" d="M499.47,306.72h-22.53l-5.85,12.7h-25.52l44.44-84.64h21.16l14.44,84.64h-24.65l-1.49-12.7ZM497.35,288.8l-2.36-21.16-9.83,21.16h12.2Z"/>
                <path class="cls-5" d="M548.38,316.06c-5.73-3.07-10.17-7.47-13.32-13.19-3.15-5.73-4.73-12.45-4.73-20.17,0-9.71,2.16-18.3,6.47-25.77,4.31-7.47,10.35-13.24,18.11-17.3,7.76-4.07,16.62-6.1,26.58-6.1,7.97,0,14.65,1.16,20.04,3.49l-3.61,20.04c-4.23-1.99-9.25-2.99-15.06-2.99-5.4,0-10.13,1.12-14.19,3.36-4.07,2.24-7.22,5.37-9.46,9.4-2.24,4.03-3.36,8.61-3.36,13.75,0,6.22,1.62,11.02,4.85,14.38,3.24,3.36,7.76,5.04,13.57,5.04,3.15,0,5.99-.33,8.53-1,2.53-.66,5.37-1.62,8.53-2.86l-3.61,20.54c-6.06,2.66-12.61,3.98-19.67,3.98s-13.94-1.53-19.67-4.61"/>
                <polygon class="cls-5" points="630.04 253.45 609.88 253.45 613.11 234.77 677.47 234.77 674.23 253.45 654.07 253.45 642.37 319.42 618.34 319.42 630.04 253.45"/>
                <path class="cls-5" d="M464.99,217.47l-5.22-10.18h-3.07v10.18h-6.69v-28.6h9.09c2.36,0,4.37.37,6.04,1.11,1.67.74,2.93,1.78,3.79,3.11.85,1.33,1.28,2.87,1.28,4.61s-.39,3.37-1.18,4.73c-.79,1.36-1.89,2.45-3.32,3.26l6.69,11.78h-7.4ZM462.15,200.92c.8-.77,1.2-1.77,1.2-3.01s-.41-2.15-1.22-2.82c-.81-.67-1.96-1.01-3.45-1.01h-1.98v7.99h1.77c1.65,0,2.88-.39,3.68-1.16"/>
                <path class="cls-5" d="M494.31,208.55h-13.5c.31,1.54.97,2.66,2,3.34,1.02.69,2.39,1.03,4.1,1.03,2.3,0,4.4-.45,6.31-1.35v4.96c-.79.39-1.84.72-3.15.99-1.32.27-2.69.4-4.12.4-2.47,0-4.58-.46-6.35-1.39-1.77-.93-3.12-2.22-4.06-3.89-.94-1.67-1.41-3.61-1.41-5.83s.45-4.16,1.35-5.83c.9-1.67,2.15-2.96,3.74-3.87,1.6-.91,3.42-1.37,5.47-1.37s3.77.44,5.26,1.3c1.49.87,2.62,2.07,3.41,3.6.79,1.53,1.18,3.26,1.18,5.19,0,1.15-.07,2.05-.21,2.69M482.28,201.7c-.7.62-1.18,1.54-1.43,2.78h7.61c-.06-1.04-.41-1.91-1.05-2.63-.65-.72-1.51-1.07-2.61-1.07-.98,0-1.82.31-2.52.93"/>
                <path class="cls-5" d="M516.56,198.58c1.94,1.88,2.9,4.61,2.9,8.2,0,2.19-.41,4.13-1.24,5.83-.83,1.7-2.01,3.01-3.53,3.93-1.53.93-3.32,1.39-5.36,1.39-1.63,0-3.04-.25-4.25-.76v9.04h-6.31v-28.73c3.45-1.15,6.67-1.72,9.67-1.72,3.48,0,6.18.94,8.12,2.82M511.59,210.87c.87-1.07,1.3-2.5,1.3-4.29s-.41-3.13-1.24-4.08c-.83-.95-1.96-1.43-3.39-1.43-1.01,0-2.08.17-3.2.5v10.22c.9.45,1.89.67,2.99.67,1.49,0,2.66-.53,3.53-1.6"/>
                <path class="cls-5" d="M527.77,216.59c-1.67-.9-2.98-2.18-3.93-3.85-.95-1.67-1.43-3.65-1.43-5.95s.48-4.28,1.43-5.93c.95-1.65,2.28-2.92,3.97-3.81,1.7-.88,3.61-1.32,5.74-1.32s3.95.44,5.64,1.32c1.68.88,3,2.15,3.95,3.79.95,1.64,1.43,3.53,1.43,5.66,0,2.36-.48,4.4-1.43,6.12-.95,1.72-2.28,3.04-3.97,3.95-1.7.91-3.61,1.37-5.74,1.37s-3.99-.45-5.66-1.35M536.75,211.06c.84-1.02,1.26-2.5,1.26-4.44,0-1.74-.41-3.1-1.22-4.08-.81-.98-1.91-1.47-3.28-1.47s-2.47.48-3.3,1.45c-.83.97-1.24,2.38-1.24,4.23s.42,3.29,1.26,4.31c.84,1.02,1.93,1.54,3.28,1.54s2.4-.51,3.24-1.54"/>
                <path class="cls-5" d="M562.32,196.14v6.06c-.39-.11-.81-.21-1.24-.29-.44-.08-.89-.13-1.37-.13-.98,0-1.86.22-2.65.65-.79.44-1.43.99-1.94,1.66v13.38h-6.31v-21.2h5.43l.76,2.61c.53-.93,1.25-1.65,2.17-2.17.91-.52,1.98-.78,3.22-.78.79,0,1.43.07,1.94.21"/>
                <path class="cls-5" d="M573.17,200.94v8.67c0,1.07.22,1.87.67,2.42.45.55,1.21.82,2.27.82.93,0,1.72-.11,2.4-.34v4.8c-.48.2-1.1.35-1.87.46-.77.11-1.58.17-2.42.17-2.47,0-4.31-.62-5.53-1.87-1.22-1.25-1.83-3.04-1.83-5.36v-9.76h-3.28v-4.67h3.28v-4.63l6.31-1.72v6.35h5.51v4.67h-5.51Z"/>
                <path class="cls-5" d="M581.29,216.71v-5.13c.81.45,1.81.82,2.99,1.11,1.18.29,2.27.44,3.28.44,1.07,0,1.91-.15,2.52-.46.62-.31.93-.74.93-1.3,0-.39-.11-.72-.32-.99-.21-.27-.58-.53-1.11-.78-.53-.25-1.36-.57-2.48-.97-2.13-.76-3.65-1.64-4.56-2.65-.91-1.01-1.37-2.3-1.37-3.87,0-1.23.35-2.33,1.05-3.3.7-.97,1.72-1.72,3.05-2.27,1.33-.55,2.91-.82,4.73-.82,2.21,0,4.19.32,5.93.97v4.84c-.67-.28-1.51-.52-2.5-.72-1-.2-1.96-.29-2.88-.29-1.07,0-1.9.13-2.5.4-.6.27-.9.61-.9,1.03,0,.36.16.68.48.95.32.27.83.54,1.51.82.69.28,1.44.56,2.25.84,2.02.76,3.46,1.64,4.33,2.65.87,1.01,1.3,2.37,1.3,4.08,0,2.02-.78,3.63-2.33,4.84-1.56,1.21-3.76,1.81-6.62,1.81-2.58,0-4.84-.41-6.77-1.22"/>
                <g class="cls-11">
                  <path class="cls-5" d="M370.85,202.9c0,12.9-10.46,23.36-23.36,23.36s-23.36-10.46-23.36-23.36,10.46-23.36,23.36-23.36,23.36,10.46,23.36,23.36"/>
                  <path class="cls-5" d="M429.39,200.3c-2.56-1.32-4.62-2.4-4.62-4.45,0-1.45,1.24-2.35,3.33-2.35,2.48,0,4.68.8,6.37,1.8v-5.28c-1.77-.76-4.2-1.4-6.37-1.4-6.17,0-8.93,3.67-8.93,7.64,0,4.66,3.14,6.9,6.6,8.73,3.42,1.8,4.71,2.59,4.71,4.54,0,1.65-1.43,2.59-3.83,2.59-3.33,0-5.69-1.54-7.22-2.77v5.61c1.44,1,4.53,2.21,7.19,2.21,5.98,0,9.76-3.12,9.76-8.15s-4.43-7.41-6.98-8.73"/>
                  <path class="cls-5" d="M383.76,188.88h-7.39v28.04h5.52v-8.92h1.11c6.91,0,11.2-3.67,11.2-9.59s-3.9-9.53-10.44-9.53M381.88,193.56h1.62c3.24,0,5.33,1.87,5.33,4.77,0,3.14-1.93,4.94-5.29,4.94h-1.66v-9.72Z"/>
                  <path class="cls-5" d="M411.8,201.82c1.87-1.31,2.78-3.2,2.78-5.77,0-4.43-3.25-7.17-8.49-7.17h-8.56v28.04h8.94c6.85,0,9.97-4.4,9.97-8.49,0-3.23-1.77-5.73-4.64-6.61M405.7,193.61c2.16,0,3.55,1.34,3.55,3.43s-1.51,3.47-3.85,3.47h-2.35v-6.9h2.64ZM403.06,212.24v-7.32h3.49c2.78,0,4.44,1.36,4.44,3.64,0,2.44-1.67,3.68-4.95,3.68h-2.98Z"/>
                  <path class="cls-4" d="M364.5,203.13l-2.59.53v4.79c0,1.61-1.32,2.89-3.04,2.89h-1.33v5.58h-4.27v-5.58h1.33c1.71,0,3.04-1.28,3.04-2.89v-4.79l2.59-.53c.56-.11.86-.74.59-1.24l-6.8-13h4.27l6.8,13c.27.51-.03,1.13-.59,1.24"/>
                  <path class="cls-4" d="M355.76,201.89l-6.8-13h-7.04c-6.4,0-11.84,5.24-11.69,11.64.11,4.78,3.19,8.35,7.48,9.7v6.7h10.5v-5.58h1.33c1.71,0,3.04-1.28,3.04-2.89v-4.79l2.59-.53c.56-.11.86-.74.59-1.24M346.91,201.14c-1.47,0-2.67-1.2-2.67-2.67s1.2-2.67,2.67-2.67,2.67,1.2,2.67,2.67-1.2,2.67-2.67,2.67"/>
                  <polygon class="cls-5" points="276.71 204.51 267.09 188.89 267.07 188.86 262.54 188.86 262.54 217.03 267.26 217.03 267.26 197.9 275.9 211.58 277.19 211.58 285.75 198.02 285.75 217.03 290.5 217.03 290.5 188.86 286.34 188.86 276.71 204.51"/>
                  <polygon class="cls-5" points="294 188.86 294 193 301.68 193 301.68 217.03 306.73 217.03 306.73 193 314.4 193 314.4 188.86 294 188.86"/>
                </g>
              </g>
            </g>
          </g>
        </g>
      </g>
    </g>
  </g>
</svg>