<?xml version="1.0" encoding="UTF-8"?>
<svg id="Layer_2" data-name="Layer 2" xmlns="http://www.w3.org/2000/svg" viewBox="0 0 3047.52 1858.67">
  <defs>
    <style>
      .cls-1 {
        fill: #fff;
        stroke-width: 0px;
      }
    </style>
  </defs>
  <g id="Layer_1-2" data-name="Layer 1">
    <g>
      <path class="cls-1" d="M1010,1077.67c3.13,11.27,12.44,19.79-35.44,102.1-18.57,32.31-48.37,89.46-69.36,136.1-30.57,65.73-36.98,93.01-29.82,126.94,6.54,30.94,33.73,50.17,70.97,50.16,8.12,0,16.62-.93,25.25-2.75,34.67-7.32,75.64-30.68,121.75-69.41,38.42-32.27,79.67-74.8,119.85-123.51.45,14.51,2.12,28.69,5.01,42.34,9.8,46.42,48.02,77.61,95.09,77.61,7.4,0,14.93-.8,22.38-2.37,56.38-11.91,115.43-50.03,180.23-116.43.45,2.89.99,5.79,1.61,8.75,8,37.92,30.25,57.97,64.35,57.97,7.44,0,15.39-.92,24.28-2.79,30.59-6.46,72.76-32.12,118.73-72.24,26.8-23.39,52.69-49.08,76.3-75.65l-47.64,110.61c96.31,4.92,197.23-53.59,197.23-53.59l186.95-400.85c57.83-40.63,83.39-52.02,94.64-54.4,1.23-.26,2.49-.39,3.74-.39,4.16,0,6.54,1.28,7.29,1.87l.16.72c.61,2.79.86,3.94-4.3,17-7.07,17.9-21.89,50.35-54.62,121.07-66.75,145.78-82.86,195.92-74.97,233.3,6.06,28.7,31.73,46.53,67.01,46.53,7.7,0,15.72-.87,23.85-2.59,33.31-7.04,75.94-30.74,120.04-66.74,38.41-31.36,75.65-70.13,106.41-110.59.32,14.29,1.64,26.42,4.05,37.84,8.63,40.87,62.28,66.26,107.83,66.26,9.2,0,18.83-1.05,28.63-3.12,41.58-8.78,88.44-33.09,135.52-70.29,46.33-36.61,91.72-83.46,128.17-135.48l46.18-64.82s-90.85-5.13-121.01,23.39c-10.23,9.67-4.39,4.49-4.39,4.49-31.46,32.14-56.67,48.34-84.28,54.18-4.05.86-7.87,1.29-11.35,1.29-8.59,0-13.42-2.22-14.34-6.59-3.02-14.29,7.24-40.03,44.07-121.14l144.69-318.7,165.75-31.27,51.04-95.48-180.24,37.11,72.88-143.69s-153.23,24.06-189.66,76.28c-28.45,40.78-58.73,101.69-58.73,101.69l-58.27,10.31-57.67,97.63,66.44-12.78-99.15,201.22c-18.89,36.96-60.36,101.35-110.92,172.25-14.68,20.58-21.16,28.55-28.02,37-4.43,5.45-9,11.08-15.94,20.22-29,34.41-47.54,49.86-63.96,53.33-1,.21-2.09.25-3,.15,2.84-7.94,11.66-27.35,24.83-56.35l.23-.52c3.2-7.04,6.75-14.85,10.57-23.3,60.6-129.54,75-175.39,66.99-213.29-8.8-41.7-44.46-69.72-88.73-69.72-7.41,0-14.97.8-22.46,2.38-26.78,5.65-59.11,20.31-111.73,51.03l17.71-31.17c-111.11-6.47-177.36,50.46-177.36,50.46l-4.33,10.03c-29.65,68.68-97.83,165.46-152.02,231.76l-.13.17c-33.93,42.9-58.98,74.76-74.46,94.7l-18.37,22.13c-38.63,43.27-50.05,54.52-62.77,57.21-.46.1-.93.15-1.39.15-2.64,0-5.07-1.77-5.39-3.29-1.76-8.35.2-17.43,16.95-52.13l130.42-264.62c-100.31-39.81-140.21-5.72-150.15,1.47-4.56,4.34-9.58,6.92-9.58,6.92-25.85-16.68-54.34-25.46-82.86-25.46-9.57,0-19.17,1-28.55,2.98-2.03.43-3.62.75-4.97,1.02l-.56.11c-4.77.95-7.66,1.53-15.71,3.98l-13.14,3.73-.62.21c-92.84,36.87-177.95,111.87-223.05,165.33-39.28,43.92-69.39,93.4-100.15,134.41l-82.86,111.77c-32.91,34.68-41.1,41.29-54.6,44.14-.85.18-1.68.27-2.48.27-1.69,0-5.65-.41-6.1-4.21l-.25-1.55-.05-.28c-1.1-5.22,4.68-18.29,10.49-30.4,84.62-168.01,77.68-188.01,72.93-219.01-2.57-16.78-10.24-43.73-27.5-64-37.97-44.57-71.24-45.23-82.55-41.97-12.24,3.57-15.37,4.38-19.69,5.1-11.47,1.93-21.56-27.49-35.67-35.62-7.3-4.2-63.66-31.58-142.66,43.74l40.5,35.67s-107.11,117.57-423.96,646.66c0,0,10.24,8.16,19.74,10.52,80.57,19.95,156.2-44.6,156.2-44.6,214.48-412.48,332.22-556.48,332.22-556.48,0,0,12.66,18.63,15.8,29.9ZM1484.03,1053.08c40.93-59.59,75.47-92.08,97.25-108.85,23.55-18.13,37.6-22.25,37.7-22.28l.62-.17.58-.29c.42-.21,4.18-2.05,7.81-2.82,1.59-.33,3.19-.5,4.74-.5,11.33,0,21.42,8.89,24.01,21.14,1.73,8.19-.8,18.07-9.32,36.43l-73.65,146.23c-31.8,64.54-70.46,102.02-114.9,111.4-3.89.82-7.54,1.24-10.84,1.24-11.75,0-17.54-4.7-19.97-16.23-1.78-8.44-3.62-33.99,17.73-88.9,9.21-23.82,18.09-43.69,33.91-69.12l4.32-7.29Z"/>
      <path class="cls-1" d="M1680.44,702.52c0,11.24.39,11.23,1.18,16.21,3.68,22.96,22.63,37.79,48.28,37.79,3.82,0,7.8-.33,11.82-.97,20.53-3.3,43.83-14.96,71.24-35.64,8.9-6.72,17.28-13.42,25.56-20.45l-28.35,49.22c85.45.11,121.67-34.33,121.67-34.33l97.15-180.65c33.08-25.59,46.8-34.69,61.92-37.77l.48-.11c.48-.12.93-.18,1.32-.19-.21,4.04-7.79,17.75-24.27,46.66-57.13,102.07-61.43,112.29-57.51,136.72,3.09,19.22,16.26,30.24,36.15,30.24,3.37,0,7.01-.31,10.82-.93,20.49-3.29,46.32-15.91,72.72-35.55,26.15-19.45,49.35-43.11,65.32-66.62l35.57-51.53s-40.23-3.6-51.92,10.29c-9.63,11.45-16.65,18.81-16.65,18.81-15.02,16.85-25.12,24.91-32.78,26.14-.43.07-.86.11-1.28.11,3.37-7.01,13.19-22.88,18.87-32.08,30.2-48.79,44.75-88.61,40.98-112.12-3.61-22.49-22.95-37.61-48.11-37.61-3.32,0-6.72.28-10.11.82-16.48,2.65-35.21,9.41-56.83,20.57l99.47-186.9s-81.32,0-105.03,36.96c-8.26,12.87-100.73,170.57-100.73,170.57-23.37,39.77-40.51,64.01-83.39,117.95-9.04,11.61-16.86,21.5-23.9,30.25l-12.44,13.82c-15.61,16.42-27.54,24.01-41.19,26.2-1.51.24-2.96.37-4.3.37-.23,0-5.59-.02-5.87-1.73-1.06-6.59,5.02-19.79,25.08-58.78l80.61-156.68,92.04-16.63,29.66-50.36-102.79,15.82,35.35-64.28s-67.37-4.47-90.76,24.82c-13.11,16.42-35.5,54.85-35.5,54.85l-27.31,4.5-31.85,52.99,28.79-5.28-52.79,95.1s-66.41,116.55-66.41,149.4Z"/>
      <g>
        <path class="cls-1" d="M1506.96,65.26c-1.96-1.94-4.83-2.64-7.47-1.83l-96.56,29.64c-1.4.43-2.64,1.26-3.57,2.38l-3.91,4.71c-70.87,85.35-92.83,105.6-213.59,196.97l-11.44,8.66c-2.51,1.9-3.57,5.17-2.65,8.18l18.54,60.41c.65,2.11,2.19,3.82,4.21,4.69,2.03.87,4.33.8,6.3-.18l33.32-16.63c27-13.48,48.29-25.29,67.36-37.49l-231.8,570.71c-1.04,2.56-.59,5.49,1.18,7.61,1.44,1.74,3.57,2.71,5.77,2.71.5,0,1-.05,1.49-.15l197.56-40.17c2.72-.55,4.92-2.57,5.7-5.23l231.46-787.53c.78-2.65.04-5.51-1.92-7.45Z"/>
        <path class="cls-1" d="M1823.66,2.16c-1.96-1.94-4.83-2.64-7.47-1.83l-93.87,28.82-3.52,1.06c-1.41.42-2.67,1.26-3.61,2.39l-4.02,4.84c-70.84,85.31-92.79,105.56-213.52,196.91l-11.69,8.84c-2.51,1.9-3.57,5.17-2.64,8.18l18.78,61.2c.65,2.11,2.19,3.82,4.21,4.69,2.03.87,4.33.8,6.3-.18l33.78-16.86c29.38-14.66,50.1-26.47,66.08-36.36l-228.68,563.03c-1.04,2.55-.59,5.46,1.16,7.59,1.44,1.75,3.57,2.73,5.79,2.73.48,0,.96-.04,1.44-.14l197.17-38.44c2.75-.54,4.97-2.56,5.76-5.25L1819.19,31.35l6.39-21.74c.78-2.65.04-5.51-1.92-7.45Z"/>
      </g>
      <path class="cls-1" d="M2548.29,639.48c28-4.75,27.54-34.31,27.54-34.31l-58.21-.06s-20.52-.56-29.17-11.91c0,0,18.15-26.57,24.51-44.32,6.97-19.44,10.06-39.16,9.17-58.62-.22-10.07-2.03-19.75-5.38-28.79-3.3-8.88-7.33-16.75-11.98-23.39-4.82-6.88-10.17-12.31-15.89-16.13-5.36-3.58-10.67-5.4-15.77-5.4-1.07,0-2.13.08-3.22.25l-1.24.2-65.29,36.47-28.35-50.19-.16-.26c-1.98-3.16-3.27-7.15-3.83-11.89-.58-4.88-.24-9.71,1.02-14.36,1.16-4.3,3.17-7.91,5.99-10.73,2.27-2.27,5.49-3.38,9.75-3.38l67.41,1c.69.04,1.1.14,1.71,1.21,0,.02.86,2.1-1.57,8.75l-4.02,10.98s21.18,4.07,34.03-11.48c6.19-7.49,55.15-76.45,55.15-76.45l-166.57,11.32c-9.33.91-18.32,2.89-26.74,5.89-8.57,3.06-16.32,7.27-23.04,12.53-6.74,5.28-12.54,11.66-17.21,18.96-4.77,7.44-8.05,16.13-9.75,25.88-1.33,8.03-1.45,15.59-.37,22.47,1.05,6.7,2.88,13.17,5.44,19.2,2.51,5.94,5.69,11.8,9.42,17.42,2.22,3.34,4.59,6.78,7.07,10.27-6.01,3.8-12.47,8.5-19.27,14.03-9.71,7.9-18.65,17.71-26.57,29.16-8,11.56-14.22,25.16-18.51,40.41-4.35,15.47-5.1,33.03-2.21,52.21,2.14,13.94,6.79,26.67,13.82,37.84,7.1,11.3,16.73,20.72,28.61,28,11.75,7.2,25.87,12.11,41.98,14.59,6.63,1.02,13.71,1.54,21.04,1.54,10.31,0,21.47-1.02,33.14-3.03,14.36-2.41,27.85-6.8,40.11-13.05,10.18-5.18,19.54-11.16,27.89-17.8,2.54,1.98,7.25,5,7.25,5,36.33,18.04,82.27,9.98,82.27,9.98ZM2416.96,476.72c.4-.17.81-.34,1.23-.51,2.75-1.11,5.26-2,7.47-2.65.46-.07,1.18-.15,2.27-.15,1.44,0,3.17.13,5.13.38,3.14.4,6.41,1.72,9.7,3.92,3.31,2.21,6.46,5.83,9.36,10.77,2.92,4.99,4.87,12.29,5.79,21.7l.05.4c1.06,6.59.72,13.57-1.01,20.72-.85,3.52-1.94,7.14-3.25,10.84l-36.73-65.42ZM2386.08,605.87c-10.33,1.65-19.57,1.18-27.21-1.41-7.78-2.62-14.48-6.61-19.92-11.85-5.51-5.3-9.84-11.61-12.88-18.76-3.12-7.33-5.07-14.74-5.79-22.05-1.34-18.3,1.34-33.87,7.96-46.27,5.5-10.3,12.33-18.87,20.36-25.57l76.25,106.49c-.75.73-1.57,1.48-2.44,2.26-2.55,2.28-5.73,4.62-9.46,6.97-3.72,2.34-7.92,4.48-12.48,6.36-4.39,1.81-9.19,3.09-14.26,3.8l-.13.02Z"/>
      <path class="cls-1" d="M222.5,1858.67c4.27-8.22,452.31-725.78,493-778,57.67-74,72.03-92.54,90.67-112.67,53.21-57.46,85.6-70.25,63-69.33s-226.67,10-226.67,10l-122.09,6.36c-19.5,0-37.05,9.9-45.86,25.84l-31.27,51.84-.22.38c-6.59,11.54-6.59,25.87,0,37.41,6.79,11.88,18.97,19.26,31.8,19.26h61.15c-31.96,36.12-62.75,64.63-93.77,86.86-50.17,35.96-100.22,54.2-148.75,54.2-37.73,0-63.68-12.2-77.12-36.27-13.77-24.66-15.19-62.08-4.1-108.22,11.72-48.76,37.23-105.89,73.78-165.22,63.26-102.69,118.15-144.05,162.39-181.72,83.07-70.73,201.12-88.39,215.15-89.6,30.41-2.62,54.63,17.06,56.97,30.82,9.08,53.49-91.81,97.25-140.06,115.05-42,15.5-158.22,36.47-158.22,36.47,3.22,23.03,15.81,44.07,15.81,44.07,30.74,48.63,90.75,44.94,90.75,44.94,18.69,0,88.09-11.2,100.77-14.47,51.34-13.22,114.65-32.26,186.02-121.16,19.88-26.99,26.33-53.78,28.08-81.02s-2.39-48.55-7.2-64.42c-8.19-27.06-25.96-52.86-53-71.92-22.98-16.2-68.51-39.07-116.57-39.07-29.36,0-168.94,6.59-292.43,85.59-44.44,28.43-82.13,51.54-124.41,89.05-48.26,42.8-93.35,93.47-134,150.58-59.52,83.6-96.64,164.26-110.31,239.74-12.34,68.11-4.83,131.31,21.7,182.78,39.87,77.34,119.5,123.51,213,123.51,58.01,0,94.49-4.92,152.8-38.06l-216.78,294.4c-22.69,31.41-56.22,72.96-74.59,96.6-8.84,11.37-78.57,104.1-81.57,111.17-3.56,8.39-2.84,16.67,2.59,22.14,8.43,8.47,38.84,12.09,71.2,12.09h128.36Z"/>
    </g>
  </g>
</svg>