<?xml version="1.0" encoding="UTF-8"?>
<svg id="Layer_2" data-name="Layer 2" xmlns="http://www.w3.org/2000/svg" viewBox="0 0 399.4 251.33">
  <defs>
    <style>
      .cls-1 {
        fill: #fff;
        stroke-width: 0px;
      }
    </style>
  </defs>
  <g id="Layer_1-2" data-name="Layer 1">
    <g>
      <g>
        <path class="cls-1" d="M93.82,60.28c7.18,0,13.01-5.83,13.01-13.01s-5.82-13.01-13.01-13.01-13.01,5.82-13.01,13.01,5.82,13.01,13.01,13.01Z"/>
        <path class="cls-1" d="M72.2,76.34v-27.82c0-9.44-9.34-18.04-16.56-15.87-7.21,2.17-37.38,11.4-38.63,11.96-1.25.56-17.02,6.67-17.02,23.91l.23,112.21s.69,11.27,12.42,11.04c0,0,3.45,0,8.97-2.99,0,0,13.59-7.42,14.49-7.82.9-.4,8.28-2.76,8.51,7.36v63l22.3-7.13v-55.88c0-3.79,2.73-22.58,12.42-30.35.6-.5,5.26-3.52,9.43,2.07,4.17,5.59,7.82,6.44,7.82,6.44,0,0,4.5,1.98,8.51-4.83.24-.47,7.27-12.11,7.59-12.65.32-.54,1.37-2.07,4.37-1.84,0,0,7.36-.46,6.21,9.89,0,0,34.2-10.38,37.02-11.96.44-.18,13.51-5.41,21.38-17.48,0,0,2.34-3.46,5.29-3.22.54,0,7.82.46,5.75,10.12,0,0,33.12-10.14,34.95-11.04,3.95-1.62,14.27-5.9,14.03-17.93.12-3.56-.84-9.78-5.98-14.26-.29-.29-22.79-16.87-22.99-17.02-1.96-1.67-2.98-5.44.23-9.43,0,0,2.53-3.68,6.21-3.45,0,0,2.81-.14,7.12,5.52.58.58,3.77,4.83,5.98,5.29,0,0,1.85.59,4.14-1.61,5.6-4.86,8.51-5.06,8.51-5.06,0,0,8.05-2.3,8.05,6.9v19.32c0,4.23,5.56,17.17,18.16,16.56,0,0,4.37-.46,8.51-1.61l13.57-4.37s17.03-5.13,23-16.09c0,0,2.82-5.52,6.9-5.52,0,0,7.13-.92,6.44,9.89l19.32-6.44v-46.68s-.54-5.52,5.98-5.52,6.21,5.06,6.21,5.06v96.57c0,2.72,2.85,11.15,12.19,11.04,0,0,26.21-.22,26.21-22.53v-8.51l-6.66,2.3v8.05s.42,5.43-5.75,5.75c-.55.11-6.65-.1-6.43-5.98V5.52S380.09,0,374.57,0c0,0-5.06-.46-8.97,6.44-3.91,6.9-5.29,12.18-10.58,12.18,0,0-6.29.74-6.21-4.83v-5.98l-19.78,6.44v22.76c0,5.64-4.24,33.7-11.73,33.8-.52.07-7.55,1.05-7.81-5.98,0,0-.02-24.05,0-26.44.18-3.58-2.59-14.23-11.5-13.11l-8.05,1.61v57.25c0,1.77-.63,10.2-10.12,10.58-.87.14-10.12-.23-10.12-9.2v-37.25s-.46-6.67,6.21-7.13l.23-9.66s-20.23,4.6-29.66,21.61c-1.12,1.21-3.47,2.3-5.06,2.3-.97,0-5.52-.28-5.75-4.83.01-1.07,0-6.21,0-6.21l-33.35,11.04s-13.1,4.14-13.1,17.48c0,0,0,9.21,5.75,13.56l23.23,17.48s3.98,2.82,2.07,7.59c-.26.81-2.98,6.31-8.51,6.44-1.07.13-4.61,0-6.67-5.29,0,0-1.84-6.9-7.81-4.83,0,0-11.17,3.91-11.96,4.14-.78.23-7.36,1.38-7.36-6.44v-25.75c0-1.91-2.36-12.81-11.5-12.42,0,0-5.29.46-9.88,2.53v11.27s6.21-.92,6.21,7.13v38.86s.29,9.71-9.89,9.89c-8.48-.09-9.89-8.21-9.89-9.2-.08-5.5.23-123.94.23-123.94l-20.23,7.82.23,84.84s-1.22,27.56-8.97,38.17c-2.26,3.06-10.1,3.06-10.81-3.68v-43.69l-19.77,6.21v17.7c0,2.96-2.75,38.1-12.84,37.59-1.28.03-4-1.37-4.02-7.41l.13-42.8-19.36,6.88s-.19,23.54-.23,24.83c-.59,7.56.47,41.62-22.07,41.62,0,0-5.52.23-5.52-6.44v-95.19s.63-10.75,8.97-14.49c0,0,8.54-3.04,10.34-3.68,1.81-.64,8.74,0,8.74,7.59v24.14l24.37-7.59Z"/>
      </g>
      <path class="cls-1" d="M383.42,7.47c0-3.76,2.99-6.19,6.35-6.19s6.34,2.44,6.34,6.19-2.98,6.19-6.34,6.19-6.35-2.42-6.35-6.19ZM389.76,2.59c-2.63,0-4.71,2.04-4.71,4.89s2.07,4.89,4.71,4.89,4.71-2.04,4.71-4.89-2.1-4.89-4.71-4.89ZM388.66,10.93h-1.37v-6.93h2.62c1.74,0,2.69.55,2.69,2.05,0,1.27-.77,1.77-1.67,1.85l1.67,3.02h-1.52l-1.55-2.95h-.87v2.95ZM388.66,6.91h1.19c1,0,1.35-.32,1.35-.97s-.42-.87-1.42-.87h-1.12v1.84Z"/>
    </g>
  </g>
</svg>