<?xml version="1.0" encoding="UTF-8"?>
<svg id="Layer_2" data-name="Layer 2" xmlns="http://www.w3.org/2000/svg" viewBox="0 0 157.4 70.67">
  <defs>
    <style>
      .cls-1 {
        fill: #fff;
        stroke-width: 0px;
      }
    </style>
  </defs>
  <g id="Layer_1-2" data-name="Layer 1">
    <path class="cls-1" d="M153.98,14.97c-8.69,0,.98,9.53-49.28,9.53-3.78,0-25.95,9.91-27.06,9.91,1.27-3.72,7.9-8.95,17.56-15.77,2.73-1.92,5.7-3.97,8.86-6.16,1.68-1.3,2.14-6.04-.18-6.04-2.11,0-6.06,3.1-15.02,12.55-10.25,3.49-22.77,7.67-30.91,14.76,6.08-7.66,9.25-12.87,12.92-16.86,10.64-3.58,18.33-10.6,18.33-12.68,0-1.15-.46-1.63-1.93-1.63-3.94,0-8.46,3.72-10.06,5.14-2.6,2.31-5.24,5.09-7.95,8.18-2.06.59-4.15.99-6.18,1.2,5.89-7.63,6.1-10.76,6.1-12.08,0-2.93-2.41-5.02-5.74-5.02C43,0,25.48,26.2,11.48,40.82,4.13,48.49,0,52.32,0,56.37c0,2.07.83,4.49,4.01,4.49,11.92,0,36.63-24.87,45.16-43.16,3.63,1.1,7.26,1.45,10.77,1.3-7.54,9.51-23.06,25.15-55.16,50.05-.47.36,0,2.26,1.05,1.39C38.06,44.27,53.9,28.45,61.68,18.88c2.02-.19,3.99-.54,5.89-1.02-10.29,12.07-21.82,28.11-37.05,39.76-3.73,2.85.98,4.21,2.82,2.49,5.65-5.32,10.28-10.06,14.2-14.24,3.92-4.19,22.2-20.63,32.28-20.63,3.23,0-1.01,3.81-5.9,9.92-8.5,10.62-13.56,15.9-16.94,17.86-3.38,1.96-3.61,3.2-4.14,4.22-1.05,2.02-.38,5.07.62,5.07,2.31,0,18.36-23.69,29.37-27.38,9.65-3.23,17.73-7.41,20.18-7.41,4.5,0-28.69,20.3-28.69,25.8,0,1.74,1.6,3.15,4.01,3.15,8.46,0,24.61-18.77,27.83-26.28.62-1.44,2.09-3.04,16.13-3.04,12.16,0,35.11-5.01,35.11-10.54,0-1.01-1.43-1.64-3.42-1.64ZM85.82,4.78c-3.07,4.46-7.66,7.7-12.65,9.76,6.38-6.18,12.65-9.76,12.65-9.76ZM61.3,17.23c-4.9.25-9.34-.65-12.22-2.66-.08-.06-.18-.05-.26.01-.54.47-1.04.9-1.21,1.04-.04.04-.06.08-.06.13-.37,4.08-27.34,41.51-41.75,41.51-1.4,0-2.12-.49-2.12-1.52,0-1.89,7.44-9.59,13.72-17.05C35.32,17.43,50.45,2.15,63.17,2.15c1.99,0,3.87,1.41,3.87,3.58,0,.95-.22,4.14-5.74,11.5ZM79.5,51.89c2.61-6.44,16.84-11.53,18.77-16.11-3.07,6.78-15.64,16.11-18.77,16.11Z"/>
  </g>
</svg>