<?xml version="1.0" encoding="UTF-8"?>
<svg id="Layer_2" data-name="Layer 2" xmlns="http://www.w3.org/2000/svg" viewBox="0 0 350.89 71.58">
  <defs>
    <style>
      .cls-1 {
        fill: #fff;
        stroke-width: 0px;
      }
    </style>
  </defs>
  <g id="Layer_1-2" data-name="Layer 1">
    <g>
      <g>
        <g>
          <path class="cls-1" d="M197.96,8.85c0-4.94,3.82-8.59,9-8.59s9,3.63,9,8.59-3.82,8.59-9,8.59-9-3.65-9-8.59ZM212.83,8.85c0-3.41-2.51-5.87-5.87-5.87s-5.87,2.46-5.87,5.87,2.51,5.87,5.87,5.87,5.87-2.46,5.87-5.87Z"/>
          <path class="cls-1" d="M232.43,3.12h-5.54V.49h14.18v2.63h-5.54v14.08h-3.1V3.12Z"/>
          <path class="cls-1" d="M259.34,3.12h-5.54V.49h14.18v2.63h-5.54v14.08h-3.1V3.12Z"/>
          <path class="cls-1" d="M280.22,8.85c0-4.94,3.82-8.59,9-8.59s9,3.63,9,8.59-3.82,8.59-9,8.59-9-3.65-9-8.59ZM295.09,8.85c0-3.41-2.51-5.87-5.87-5.87s-5.87,2.46-5.87,5.87,2.51,5.87,5.87,5.87,5.87-2.46,5.87-5.87Z"/>
        </g>
        <g>
          <path class="cls-1" d="M214.24,39.73c0,2.86-2.24,4.53-6.54,4.53h-8.31v-16.71h7.83c4.01,0,6.16,1.69,6.16,4.34,0,1.72-.86,2.98-2.15,3.68,1.79.57,3.01,1.98,3.01,4.15ZM202.5,30v4.61h4.39c2.15,0,3.36-.76,3.36-2.29s-1.22-2.32-3.36-2.32h-4.39ZM211.11,39.42c0-1.67-1.26-2.41-3.6-2.41h-5.01v4.82h5.01c2.34,0,3.6-.74,3.6-2.41Z"/>
          <path class="cls-1" d="M238.04,44.27l-3.41-4.89c-.21.02-.43.02-.64.02h-3.77v4.87h-3.1v-16.71h6.87c4.39,0,7.11,2.24,7.11,5.94,0,2.53-1.29,4.39-3.56,5.27l3.84,5.49h-3.34ZM233.84,30.19h-3.63v6.66h3.63c2.72,0,4.13-1.24,4.13-3.34s-1.41-3.32-4.13-3.32Z"/>
          <path class="cls-1" d="M266.64,41.67v2.6h-12.53v-16.71h12.19v2.6h-9.09v4.34h8.07v2.55h-8.07v4.61h9.43Z"/>
          <path class="cls-1" d="M295,44.27l-.02-11.07-5.49,9.16h-1.38l-5.49-9.02v10.93h-2.96v-16.71h2.55l6.63,11.07,6.52-11.07h2.55l.02,16.71h-2.94Z"/>
          <path class="cls-1" d="M323.6,41.67v2.6h-12.53v-16.71h12.19v2.6h-9.09v4.34h8.07v2.55h-8.07v4.61h9.43Z"/>
          <path class="cls-1" d="M347.55,44.27l-3.41-4.89c-.21.02-.43.02-.64.02h-3.77v4.87h-3.1v-16.71h6.87c4.39,0,7.11,2.24,7.11,5.94,0,2.53-1.29,4.39-3.56,5.27l3.84,5.49h-3.34ZM343.35,30.19h-3.63v6.66h3.63c2.72,0,4.13-1.24,4.13-3.34s-1.41-3.32-4.13-3.32Z"/>
        </g>
      </g>
      <g>
        <path class="cls-1" d="M232.67,57.26h-5.54v-2.63h14.18v2.63h-5.54v14.08h-3.1v-14.08Z"/>
        <path class="cls-1" d="M264.85,71.34l-3.41-4.89c-.21.02-.43.02-.64.02h-3.77v4.87h-3.1v-16.71h6.87c4.39,0,7.11,2.24,7.11,5.94,0,2.53-1.29,4.39-3.56,5.27l3.84,5.49h-3.34ZM260.65,57.26h-3.63v6.66h3.63c2.72,0,4.13-1.24,4.13-3.34s-1.41-3.32-4.13-3.32Z"/>
        <path class="cls-1" d="M281.01,64.06v-9.43h3.1v9.31c0,3.44,1.55,4.92,4.25,4.92s4.22-1.48,4.22-4.92v-9.31h3.05v9.43c0,4.87-2.74,7.52-7.3,7.52s-7.33-2.65-7.33-7.52Z"/>
        <path class="cls-1" d="M309.59,69.57l1.07-2.41c1.34,1.07,3.46,1.84,5.51,1.84,2.6,0,3.7-.93,3.7-2.17,0-3.6-9.93-1.24-9.93-7.45,0-2.7,2.15-4.99,6.73-4.99,2.01,0,4.11.53,5.56,1.48l-.98,2.41c-1.5-.88-3.15-1.31-4.61-1.31-2.58,0-3.63,1-3.63,2.27,0,3.56,9.9,1.24,9.9,7.37,0,2.67-2.17,4.96-6.75,4.96-2.6,0-5.2-.81-6.59-2.01Z"/>
        <path class="cls-1" d="M341.94,57.26h-5.54v-2.63h14.18v2.63h-5.54v14.08h-3.1v-14.08Z"/>
      </g>
      <rect class="cls-1" x="177.38" y=".49" width=".9" height="70.84"/>
      <path class="cls-1" d="M153.98,14.97c-8.69,0,.98,9.53-49.28,9.53-3.78,0-25.95,9.91-27.06,9.91,1.27-3.72,7.9-8.95,17.56-15.77,2.73-1.92,5.7-3.97,8.86-6.16,1.68-1.3,2.14-6.04-.18-6.04-2.11,0-6.06,3.1-15.02,12.55-10.25,3.49-22.77,7.67-30.91,14.76,6.08-7.66,9.25-12.87,12.92-16.86,10.64-3.58,18.33-10.6,18.33-12.68,0-1.15-.46-1.63-1.93-1.63-3.94,0-8.46,3.72-10.06,5.14-2.6,2.31-5.24,5.09-7.95,8.18-2.06.59-4.15.99-6.18,1.2,5.89-7.63,6.1-10.76,6.1-12.08,0-2.93-2.41-5.02-5.74-5.02C43,0,25.48,26.2,11.48,40.82,4.13,48.49,0,52.32,0,56.37c0,2.07.83,4.49,4.01,4.49,11.92,0,36.63-24.87,45.16-43.16,3.63,1.1,7.26,1.45,10.77,1.3-7.54,9.51-23.06,25.15-55.16,50.05-.47.36,0,2.26,1.05,1.39C38.06,44.27,53.9,28.45,61.68,18.88c2.02-.19,3.99-.54,5.89-1.02-10.29,12.07-21.82,28.11-37.05,39.76-3.73,2.85.98,4.21,2.82,2.49,5.65-5.32,10.28-10.06,14.2-14.24,3.92-4.19,22.2-20.63,32.28-20.63,3.23,0-1.01,3.81-5.9,9.92-8.5,10.62-13.56,15.9-16.94,17.86-3.38,1.96-3.61,3.2-4.14,4.22-1.05,2.02-.38,5.07.62,5.07,2.31,0,18.36-23.69,29.37-27.38,9.65-3.23,17.73-7.41,20.18-7.41,4.5,0-28.69,20.3-28.69,25.8,0,1.74,1.6,3.15,4.01,3.15,8.46,0,24.61-18.77,27.83-26.28.62-1.44,2.09-3.04,16.13-3.04,12.16,0,35.11-5.01,35.11-10.54,0-1.01-1.43-1.64-3.42-1.64ZM85.82,4.78c-3.07,4.46-7.66,7.7-12.65,9.76,6.38-6.18,12.65-9.76,12.65-9.76ZM61.3,17.23c-4.9.25-9.34-.65-12.22-2.66-.08-.06-.18-.05-.26.01-.54.47-1.04.9-1.21,1.04-.04.04-.06.08-.06.13-.37,4.08-27.34,41.51-41.75,41.51-1.4,0-2.12-.49-2.12-1.52,0-1.89,7.44-9.59,13.72-17.05C35.32,17.43,50.45,2.15,63.17,2.15c1.99,0,3.87,1.41,3.87,3.58,0,.95-.22,4.14-5.74,11.5ZM79.5,51.89c2.61-6.44,16.84-11.53,18.77-16.11-3.07,6.78-15.64,16.11-18.77,16.11Z"/>
    </g>
  </g>
</svg>