<?xml version="1.0" encoding="UTF-8"?>
<svg id="Layer_2" data-name="Layer 2" xmlns="http://www.w3.org/2000/svg" xmlns:xlink="http://www.w3.org/1999/xlink" viewBox="0 0 3326 765">
  <defs>
    <style>
      .cls-1 {
        clip-path: url(#clippath);
      }

      .cls-2 {
        fill: none;
      }

      .cls-2, .cls-3, .cls-4 {
        stroke-width: 0px;
      }

      .cls-5 {
        clip-path: url(#clippath-1);
      }

      .cls-3 {
        fill: #2638c4;
      }

      .cls-4 {
        fill: #fff;
      }
    </style>
    <clipPath id="clippath">
      <rect class="cls-2" width="3326" height="765"/>
    </clipPath>
    <clipPath id="clippath-1">
      <rect class="cls-2" width="3326" height="765"/>
    </clipPath>
  </defs>
  <g id="Layer_1-2" data-name="Layer 1">
    <g id="MontanaPBS_LOGO_A-Primary_White_RGB_v19">
      <g class="cls-1">
        <g class="cls-5">
          <path class="cls-4" d="M2483.31,382.44c0,140.76-114.1,254.86-254.86,254.86s-254.86-114.1-254.86-254.86,114.11-254.86,254.86-254.86,254.86,114.11,254.86,254.86"/>
          <path class="cls-4" d="M3121.82,354.05c-27.88-14.44-50.41-26.2-50.41-48.57,0-15.81,13.53-25.64,36.31-25.64,27.05,0,51.05,8.75,69.46,19.68v-57.55c-19.28-8.3-45.78-15.27-69.5-15.27-67.25,0-97.36,40.06-97.36,83.39,0,50.87,34.25,75.28,72.03,95.24,37.25,19.69,51.35,28.23,51.35,49.48,0,17.98-15.6,28.3-41.74,28.3-36.32,0-62.08-16.79-78.8-30.21l.05,61.19c15.66,10.94,49.33,24.1,78.36,24.1,65.28,0,106.45-34.06,106.45-88.89s-48.31-80.8-76.18-95.24"/>
          <path class="cls-4" d="M2624.11,229.53h-80.62v305.83h60.18v-97.29h12.12c75.35,0,122.15-40.07,122.15-104.57s-42.56-103.98-113.83-103.98M2603.67,280.51h17.69c35.33,0,58.16,20.44,58.16,52.08,0,34.27-21.03,53.92-57.69,53.92h-18.16v-106Z"/>
          <path class="cls-4" d="M2930.04,370.67c20.38-14.3,30.3-34.92,30.3-62.89,0-48.27-35.48-78.26-92.59-78.26h-93.36v305.83h97.52c74.74,0,108.78-47.99,108.78-92.59,0-35.28-19.29-62.53-50.64-72.1M2863.45,281.04c23.55,0,38.76,14.67,38.76,37.37s-16.49,37.84-42,37.84h-25.61v-75.21h28.85ZM2834.6,484.31v-79.83h38.09c30.35,0,48.47,14.84,48.47,39.69,0,26.64-18.17,40.14-54.02,40.14h-32.55Z"/>
          <path class="cls-3" d="M2414.05,384.93l-28.29,5.75v52.29c0,17.56-14.44,31.57-33.14,31.57h-14.47v60.81h-46.55v-60.81h14.47c18.69,0,33.14-14.01,33.14-31.57v-52.29l28.29-5.75c6.13-1.25,9.36-8.02,6.46-13.57l-74.18-141.84h46.55l74.18,141.84c2.9,5.54-.32,12.32-6.46,13.57"/>
          <path class="cls-3" d="M2318.71,371.37l-74.18-141.84h-76.77c-69.83,0-129.13,57.16-127.47,126.97,1.24,52.09,34.85,91.12,81.56,105.8v73.06h114.52v-60.81h14.47c18.69,0,33.14-14.01,33.14-31.57v-52.29l28.28-5.75c6.13-1.25,9.35-8.02,6.46-13.57M2222.17,363.26c-16.09,0-29.13-13.04-29.13-29.13s13.04-29.13,29.13-29.13,29.13,13.04,29.13,29.13-13.04,29.13-29.13,29.13"/>
          <polygon class="cls-4" points="282.44 399.71 177.51 229.3 128.17 229.3 128.17 536.05 179.53 536.05 179.53 327.75 273.63 476.7 287.67 476.7 380.87 329.1 380.87 536.05 432.67 536.05 432.67 229.3 387.38 229.3 282.44 399.71"/>
          <path class="cls-4" d="M654.08,317.72c-17.08-9.44-36.68-14.23-58.24-14.23s-42.13,4.71-59.36,14c-17.24,9.29-30.99,23.05-40.89,40.89-9.89,17.83-14.9,39.32-14.9,63.86s4.94,45.6,14.67,63.41c9.74,17.84,23.42,31.67,40.67,41.12,17.23,9.44,36.75,14.22,58.02,14.22s41.76-4.94,59.15-14.68c17.39-9.74,31.22-23.88,41.11-42.01,9.89-18.12,14.9-39.91,14.9-64.76,0-23.05-4.94-43.63-14.68-61.17-9.75-17.54-23.35-31.22-40.44-40.66M594.94,495.49c-17.15,0-31.47-6.52-42.56-19.39-11.11-12.89-16.74-31.16-16.74-54.31s5.63-42.01,16.73-54.3c11.09-12.27,25.57-18.49,43.02-18.49s32.15,6.3,42.79,18.71c10.66,12.44,16.07,30.18,16.07,52.73,0,24.04-5.63,42.77-16.74,55.65-11.09,12.86-25.41,19.39-42.56,19.39"/>
          <path class="cls-4" d="M933.19,324.32c-14.28-13.82-33.83-20.82-58.12-20.82-14.99,0-28.21,2.28-39.31,6.78-10.86,4.4-21.43,10.61-31.42,18.46l-4.41-20.29h-44.97v227.62h52.26v-161.71c7.38-7.06,15.46-13.04,24.02-17.76,8.58-4.73,18.64-7.13,29.88-7.13,13.87,0,24.33,3.88,31.1,11.52,6.78,7.67,10.22,18.45,10.22,32.04v143.03h52.26v-152.93c0-25.2-7.24-44.98-21.51-58.81Z"/>
          <path class="cls-4" d="M1073.4,243.97l-52.26,15.58v48.88h-32.82v41.02h32.82v122.7c0,21.02,5.72,37.92,16.99,50.25,11.28,12.34,29.03,18.6,52.75,18.6,8.06,0,16.02-.61,23.68-1.8,7.65-1.2,13.82-2.73,18.32-4.53l.31-.12v-43.75l-.66.22c-8.89,2.97-18.37,4.47-28.17,4.47-20.84,0-30.98-10.72-30.98-32.77v-113.26h61.15v-41.02h-61.15v-64.47Z"/>
          <path class="cls-4" d="M1257.25,303.49c-26.91,0-53.29,4.85-78.41,14.42l-.32.12v47.91l.72-.35c10.99-5.35,22.83-9.57,35.19-12.55,12.36-2.98,24.5-4.48,36.08-4.48,19.52,0,32.7,4.39,39.17,13.06,6.5,8.72,9.79,21.1,9.79,36.8v1.63c-11.81-2.6-24.64-3.92-38.17-3.92-29.63,0-54.23,5.92-73.1,17.61-18.95,11.73-28.56,30.79-28.56,56.63,0,21.63,6.78,38.99,20.17,51.62,13.37,12.62,31.56,19.02,54.07,19.02,14.39,0,27.84-2.51,39.98-7.46,11.85-4.83,21.91-10.81,29.91-17.79l6.18,20.29h41.79v-142.58c0-28.78-7.99-51.21-23.76-66.68-15.76-15.46-39.56-23.3-70.72-23.3M1299.46,437.05v41.15c-17.15,12.07-34.98,18.19-53.01,18.19-10.31,0-18.44-2.68-24.17-7.96-5.71-5.27-8.61-11.96-8.61-19.87,0-12.62,5.42-21.54,16.12-26.53,10.83-5.04,24.14-7.6,39.58-7.6,10.84,0,20.96.88,30.08,2.61"/>
          <path class="cls-4" d="M1589.2,324.32c-14.28-13.82-33.83-20.82-58.13-20.82-14.99,0-28.21,2.28-39.31,6.78-10.86,4.4-21.43,10.61-31.42,18.46l-4.41-20.29h-44.97v227.62h52.26v-161.71c7.38-7.06,15.46-13.04,24.02-17.76,8.58-4.73,18.64-7.13,29.89-7.13,13.87,0,24.33,3.88,31.1,11.52,6.78,7.67,10.22,18.45,10.22,32.04v143.03h52.26v-152.93c0-25.2-7.24-44.98-21.51-58.81Z"/>
          <path class="cls-4" d="M1826.16,326.79c-15.76-15.46-39.55-23.3-70.72-23.3-26.91,0-53.29,4.85-78.42,14.42l-.32.12v47.91l.72-.35c10.99-5.35,22.83-9.57,35.19-12.55,12.36-2.98,24.5-4.48,36.08-4.48,19.52,0,32.7,4.39,39.17,13.06,6.5,8.72,9.79,21.1,9.79,36.8v1.63c-11.81-2.6-24.64-3.92-38.17-3.92-29.63,0-54.23,5.92-73.1,17.61-18.95,11.73-28.56,30.79-28.56,56.63,0,21.63,6.78,38.99,20.17,51.62,13.37,12.62,31.56,19.02,54.07,19.02,14.39,0,27.84-2.51,39.98-7.46,11.85-4.83,21.9-10.81,29.91-17.79l6.18,20.3h41.78v-142.58c0-28.78-7.99-51.21-23.76-66.68M1797.66,437.05v41.15c-17.15,12.07-34.98,18.19-53.01,18.19-10.31,0-18.44-2.68-24.17-7.96-5.71-5.27-8.61-11.96-8.61-19.87,0-12.62,5.42-21.54,16.12-26.53,10.83-5.04,24.14-7.6,39.58-7.6,10.84,0,20.96.88,30.08,2.61"/>
        </g>
      </g>
    </g>
  </g>
</svg>