<?xml version="1.0" encoding="UTF-8"?>
<svg id="Layer_2" data-name="Layer 2" xmlns="http://www.w3.org/2000/svg" viewBox="0 0 1530.77 932.95">
  <defs>
    <style>
      .cls-1 {
        letter-spacing: 0em;
      }

      .cls-2 {
        font-family: AGaramondPro-Regular, 'Adobe Garamond Pro';
        font-size: 141px;
        stroke-width: 3px;
      }

      .cls-2, .cls-3, .cls-4 {
        fill: #fff;
        stroke: #fff;
        stroke-miterlimit: 10;
      }

      .cls-5 {
        letter-spacing: -.02em;
      }

      .cls-6 {
        letter-spacing: -.01em;
      }

      .cls-7 {
        letter-spacing: -.02em;
      }

      .cls-4 {
        font-family: AGaramondPro-Bold, 'Adobe Garamond Pro';
        font-size: 75.45px;
        font-weight: 700;
      }
    </style>
  </defs>
  <g id="Layer_1-2" data-name="Layer 1">
    <path class="cls-3" d="M936.85,489.1c-16.73,2.26-18.57.93-81.35,19.87-62.77,18.95-208.33,81.76-208.33,81.76-27.36,10.49-54.89,20.54-82.45,30.48-16.59,5.99-33.25,11.86-50.11,17.03-26.15,8.01-52.93,12.93-80.18,15.7-20.69,2.11-41.08.52-61.62-1.57-12.19-1.24-23.83,3.88-35.73,6.02-38.23,6.87-76.22,4.15-113.39-5.19-34.12-8.57-65.72-23.65-94.96-43.77-27.59-18.98-52.06-41.32-72.71-67.32-20.68-26.03-35.8-55.25-45.18-87.71C3.68,429.61-.2,404.89.61,381.17c.16-55.19,17.53-102.79,47.96-145.95,17.59-24.95,39.27-45.98,64.49-63.07,31.98-21.67,65.82-39.25,104-47.97,24.82-5.67,49.67-9.65,75.06-8.69,37.61,1.42,74.06,9.29,108.45,24.5,24.91,11.02,49.21,23.75,69.94,41.81,31.34,27.32,57.61,58.69,74.87,97.04,18.91,42.05,24.64,85.87,20.69,131.62-1.08,12.49-3.58,24.78-6.75,36.33,0,0-19.41,64.87-43.24,96-14.77,19.29-21.61,27.04-33.86,39.46-10.69,10.85-22.01,21.25-35.05,28.92-1.64.97-3.37,1.87-2.93,3.88.37,1.67,3.54,1.49,5.49,1.46,17.79-.35,32.09-3.46,51.24-10.16,26.07-8.12,49.29-18.07,73.03-28.77l190.95-99.42s93.09-39.87,144.23-51.69c0,0,107.53-33.24,224.12-28.78,116.59,4.46,157.83,65.33,164.4,74.94,77.06,112.77-45.53,186-45.53,186-26.1,16.75-54.22,24.79-85.66,24.58-23.83-.16-46.22-5.19-68.82-11.11-27.5-7.2-53.09-19.09-77.04-33.87-17.62-10.87-35.14-22.73-46.93-40.73-3.01-4.59-7.03-11.24-3.44-16.49,3.58-5.24,9.91-5.83,16.68-4.47,13.21,2.67,24.91,8.15,31.06,20.46,13.78,27.56,49.67,40.84,67.05,42.14,89.39,6.69,70.96-77.3,70.96-77.3-6.76-27.04-19.83-38.5-38.48-49.78,0,0-61.01-39.18-180.69-22.98ZM471.85,406.98c.52-26.1-2.75-51.52-10.65-76.24-8.17-25.59-18.82-50.01-34.67-71.96-11.47-15.88-23.16-31.73-38.14-44.33-18.34-15.43-37.46-29.91-59.03-40.96-24.05-12.33-49.03-18.43-76.08-15.11-27.7,3.4-53.33,12.84-74.75,30.48-19,15.65-32.82,36.22-44.31,58-15.81,29.97-26.63,61.43-29.81,95.57-2.19,23.5-2.81,47.12,2.89,69.64,7.29,28.81,15.17,57.68,31.04,83.76,12.22,20.07,25.76,38.86,41.47,56.2,11.78,13.01,25.22,24.27,38.64,35.44,19.91,16.57,42.41,28.84,67.13,36.78,3.26,1.05,7.76,3.3,10.17-.3,2.61-3.9-2.11-6.31-4.09-9.13-1.09-1.55-2.49-2.87-3.71-4.32-12.11-14.4-16.61-30.36-9.14-48.34,5.53-13.31,15.75-21.29,30.24-21.72,12.38-.37,21.86,6.16,27.5,17.03,6.63,12.78-.34,22.92-7.8,32.66-3.82,4.98-2.53,8.62,2.61,11.87,7.28,4.59,14.86,8.54,22.6,12.26,5.2,2.5,10.37,2.48,15.13-.3,6.67-3.9,13.39-7.92,19.38-12.76,17.51-14.15,30.12-32.46,41.96-51.31,11.07-17.62,19.99-36.43,27.16-55.83,10.35-28,14.41-57.34,14.25-87.06Z"/>
    <path class="cls-3" d="M726.97,410.01c1.65,20.17,11.16,26.52,30.61,32.37,3.3.99,9.11,3.61,9.11,5.8,0,2.05-3.69,5.67-10.28,9.07-14.92,5.71-27.96,9.27-47.23,9.5-6.71.41-15.46-2.57-23.71-7.63-3.65-2.47-5.47-4.32-8.06.65-1.62,2.6-.93,1.47-2.91,4.99-7.47,16.03-24.13,32.23-40.9,33.8-9.55.89-16.38,1.28-25.35-4.84-12.34-8.41-13.63-20.51-14.44-33.85-1.59-26.23-4.35-52.38-6.59-78.57-.75-8.72-1.32-17.45-2.1-26.17-.57-6.39-2.36-12.06-9.15-14.72-1.58-.62-3.15-1.89-3.02-3.93.13-2.1,1.98-3.07,3.62-3.34,17.94-3.03,33.58-13.41,51.65-16.08,4.66-.69,6.98,1.71,9.05,5.25,3.64,6.24,3.36,13.19,4,19.99,3.23,34.01,6.39,68.02,9.81,102.01.52,5.19.45,4.92,1.49,13.83.54,2.01,1.69,3.25,3.33,4.26,2.07,1.27,4.16.78,5.6-.79,8.34-9.88,12.13-20.61,11.7-26.4-3.02-23.08-4.62-46.76-6.71-70.16-1.42-15.84-3.08-31.67-4.95-47.46-1.27-10.71.56-13.43,10.6-16.69,10.62-3.45,21.77-5.11,31.65-11.15,6.38-3.9,10.7.87,11.8,6.83l11.4,113.43Z"/>
    <path class="cls-3" d="M953.89,396.44c-6.5,1.41-5.08.17-6.21-11.47-1.18-14.94-2.35-26.9-3.79-40.5-2.55-28.04-5.86-56.1-8.18-84.17-.91-11.03-7.6-15.07-17.38-9.96-5.94,3.1-5.33,8.66-4.79,13.87,3.97,38.62,8.43,76.3,12.53,114.9.25,2.32.98,9.11,1.48,11.38,1.04,10.12,2.07,10.64-3.06,13.08-12.94,4.39-36.86,11.79-51.21,15.58-3.95.88-2.41,3.19-5.18-18.45-2.38-19.61-3.58-37.74-6.22-58.03-2.14-19.46-3.65-38.39-5.13-57.61-.55-7.09-3.36-12.38-9.92-15.25-6.82-2.99-13.75-5.7-20.65-8.53-2.48-1.02-6.56-3.43-6.56-5.31,0-1.31,4.17-3.61,10.46-5.22,18.33-4.62,31.66-7.44,51.95-8.88,4.52.1,8.63.8,12.49,3.29,5.46,3.52,10.16,1.87,13.74-3,11.8-16.04,27.88-26.12,47.11-28.64,18.04-2.36,32.28,6.16,34.91,32.42,3.08,30.8,4.28,61.73,7.62,92.48.78,7.23,1.26,13.39,2.02,20.63.38,3.62,2.3,11.51,5.71,13.31,3.14,1.66,8.73.88,8.63,5.12.1,3.8-3.38,3.96-7.02,4.83l-53.34,14.1Z"/>
    <path class="cls-3" d="M1266.65,293.38c-11.2,1.04-22.53-1.9-35.63-9.39-8.95-5.12-14.76-13.4-15.92-23.75-1.03-9.27,6.67-21.05,14.77-24.68,11.72-5.25,29.55-2.73,33.9,7.35,1.29,3.4,1.41,7.18.61,10.25-.9,3.25-2.57,8.14-.66,9.07,1.86.91,10.58-3.12,12.29-4.24,15.23-9.99,23.26-40.82,4.41-57.31-7.73-6.23-16.86-5.08-25.46-6.4-16.05-2.45-30.3-5.86-39.39-22.15-5.29-9.6-4.02-25.29.56-33.44,12.04-21.45,30.82-29.67,52.28-34.47,10.98-2.46,21.03-4.14,32.63-5.12,15.53-.42,31.02,12.11,30.51,27.43-.35,10.42-10.42,17.03-21.95,15.91-10.9-1.06-13.71-2.59-14.83-12.77-.31-7.75,3.2-15.65-.31-15.65-4.94,0-11.16,10.63-12.29,12.4-10.55,16.53-4.26,38.58,17.5,44.38,8.58,2.29,17.41,4.21,26.23,4.92,28.68,2.33,50.53,36.04,38.09,67.48-9.12,23.03-28.2,34.26-50.64,40.6-13.08,3.69-20.5,7.11-46.68,9.6Z"/>
    <path class="cls-3" d="M797.35,443.87c-17.38-.8-34.07-12.34-36.12-36.22-3.15-36.61-8.26-73.05-12.5-109.57-.65-5.57-3.03-10.35-6.53-14.59-3.28-3.99-1.88-6.41,2.53-7.63,13.51-3.74,27.04-6.51,40.58-10.13,3.11-.83,6.19-1.66,8.84-4.48,7.81-9.91,11.21-4.16,12.42,4.07,1.65,10.18,2.21,16.33,3.48,25.91,3.34,28.26,6.89,58.97,9.55,88.48.61,6.79,1.83,16.35,2.99,23.06,1.02,5.85,2.63,6.88,6.73,7.46,3.58.55,8.38-4.66,10.31-7.83,1.59-2.61,3.91-5.72,5.56-6,1.8.01,2.59.32,3.14,1.95,0,3.6-1.89,7.04-3.44,10.05-4.22,7.75-7.93,14.69-14.24,20.84-10.02,9.77-20.51,14.65-33.31,14.65Z"/>
    <path class="cls-3" d="M1076.97.7c9.61,1.33,21.14,2.18,31.28,8.43,2.06,1.27,5.23,2.18,9.37,1,8.2-2.33,16.58-1.92,24.87-2.3,6.28-.29,11.21,3.47,2.87,11.81-10.07,12.1.81,19.93,6.29,29.26,4.97,5.56,6.88,15.51,21.18,20.18,2.11,1.08,3.14,1.77,1.21,3.23-8.23,6.24-12.14,8.12-7.64,29.02,1.65,7.96,2.55,12.76,8.7,19.49,1.92,2.1,3.76,4.11,6.66,4.67,6.96,1.34,7.86,4.29,6.18,10.02-2.6,8.91-6.44,16.39-3.28,28.96.99,5-1.75,5.93-2.85,6.1s-1.73-.29-2.54-.87c-20.48-14.28-28.71-35.56-30.59-58.66-.19-2.32-.64-4.62-.97-6.94-.74-18.49-4.48-10.13-11.18-5.73-1.75,1.15-3.63,2.09-5.67.63-1.84-1.31-1.87-3.22-1.4-5.14,12.84-15.05,4.69-19.64-7.81-28.88-1.8-.96-5.39-4.35-7.61-6-4.18-2.27-13.21-9.33-14.81-4.13-1.07,3.47.15,8.11-3.17,10.74-2.25,1.79-1.88,1.39-6.11,3.36-6.04,2.47-1.77-12.63-1.23-16.7,1.61-12.06-10.81-11.21-22.24-13.9-12.44-1.96-15.83-.44-23.78-2.83-1.65-.5-2.92-1.6-2.84-3.44.11-2.63,9.73-2.39,11.99-3.46,1.24-.59,3.31-.59,3.16-2.48-.16-1.94-2.15-2.11-3.67-2.56-5.12-1.52-19.05-2.08-19.03-8.78.01-6.5,6.88-7.64,11.92-9.2,10.09-3.12,23.42-5.86,32.73-4.9Z"/>
    <path class="cls-3" d="M751.61,257.1c-22.04,1.93-41.78-19.76-41.78-40.66.49-25.02,21.39-41.01,44.44-39.95,18.55.85,41.64,17.7,39.8,43.96-1.42,20.26-20.93,37.62-42.47,36.65Z"/>
    <path class="cls-3" d="M1126.27,348.17c-6.5,1.41-5.08.17-6.21-11.47-1.18-14.94-2.35-26.9-3.79-40.5-2.55-28.04-5.86-56.1-8.18-84.17-.91-11.03-7.6-15.07-17.38-9.96-5.94,3.1-5.33,8.66-4.79,13.87,3.97,38.62,8.43,76.3,12.53,114.9.25,2.32.98,9.11,1.48,11.38,1.04,10.12,2.07,10.64-3.06,13.08-12.94,4.39-36.86,11.79-51.21,15.58-3.95.88-2.41,3.19-5.18-18.45-2.38-19.61-3.58-37.74-6.22-58.03-2.14-19.46-3.65-38.39-5.13-57.61-.55-7.09-3.36-12.38-9.92-15.25-6.82-2.99-13.75-5.7-20.65-8.53-2.48-1.02-6.56-3.43-6.56-5.31,0-1.31,4.17-3.61,10.46-5.22,18.33-4.62,31.66-7.44,51.95-8.88,4.52.1,8.63.8,12.49,3.29,5.46,3.52,10.16,1.87,13.74-3,11.8-16.04,27.88-26.12,47.11-28.64,18.04-2.36,32.28,6.16,34.91,32.42,3.08,30.8,4.28,61.73,7.62,92.48.78,7.23,1.26,13.39,2.02,20.63.38,3.62,2.3,11.51,5.71,13.31,3.14,1.66,8.73.88,8.63,5.12.1,3.8-3.38,3.96-7.02,4.83l-53.34,14.1Z"/>
    <text class="cls-4" transform="translate(671.46 909.67)"><tspan x="0" y="0">quinnshotsprings.com</tspan></text>
    <text class="cls-2" transform="translate(311.15 804.16)"><tspan class="cls-5" x="0" y="0">H</tspan><tspan x="111.11" y="0">ot </tspan><tspan class="cls-7" x="258.17" y="0">S</tspan><tspan x="323.74" y="0">prings </tspan><tspan class="cls-6" x="695.97" y="0">R</tspan><tspan x="785.22" y="0">eso</tspan><tspan class="cls-1" x="955.13" y="0">r</tspan><tspan x="1003.06" y="0">t</tspan></text>
  </g>
</svg>