<?xml version="1.0" encoding="UTF-8"?>
<svg id="Layer_2" data-name="Layer 2" xmlns="http://www.w3.org/2000/svg" viewBox="0 0 456.53 321.57">
  <defs>
    <style>
      .cls-1 {
        fill: #fff;
        stroke-width: 0px;
      }
    </style>
  </defs>
  <g id="Layer_1-2" data-name="Layer 1">
    <g>
      <path class="cls-1" d="M431.59,168.38c-51.1,53.19-112.38,64.15-112.38,64.15l-43.89-89.14s42.76-19.81,42.76-78.21S258.11,0,258.11,0h-115.76l.52,233.08C58.4,215.87,14.6,167.38,14.6,167.38L0,193.97s63.62,78.21,223.65,78.21,222.55-78.21,222.55-78.21l-14.61-25.59ZM178.85,29.72h65.7c6.26,0,40.15,5.21,40.15,43.28s-41.71,43.28-41.71,43.28h-64.14V29.72ZM178.85,237.77v-89.68h64.14l41.42,88.87c-67.79,11.47-105.55.82-105.55.82Z"/>
      <path class="cls-1" d="M29.87,321.06H12.15v-7.8h2.65v-16.99h-2.65v-7.8h17.72c1.59,0,3.07.03,4.43.08,1.36.05,2.52.13,3.49.23.97.1,1.86.24,2.67.41,2.28.48,4.13,1.54,5.55,3.16,1.44,1.66,2.16,3.61,2.16,5.86,0,1.69-.44,3.22-1.31,4.59-.87,1.36-2.02,2.36-3.45,3l4.5,7.45h2.34v7.8h-11.74l-7.1-13.31h-4.01v5.51h2.46v7.8ZM27.41,295.6v6.21h1.41c1.84,0,3.09-.05,3.75-.16.7-.11,1.3-.42,1.78-.94.48-.48.73-1.15.73-1.99s-.24-1.52-.73-2.02c-.48-.52-1.1-.83-1.85-.94-.72-.11-2.03-.16-3.94-.16h-1.15Z"/>
      <path class="cls-1" d="M52.7,304.67c0-2.72.66-5.35,1.99-7.9,1.31-2.53,3.35-4.66,6.12-6.4.98-.61,2-1.09,3.04-1.45,1.04-.36,2.17-.64,3.39-.83,1.22-.2,2.5-.29,3.84-.29,5.84,0,10.37,1.71,13.57,5.13,1.59,1.69,2.8,3.52,3.61,5.48.81,1.97,1.22,4.05,1.22,6.26,0,4.55-1.66,8.5-4.97,11.86-3.31,3.36-7.79,5.04-13.43,5.04s-9.87-1.58-13.27-4.73c-3.41-3.14-5.11-7.2-5.11-12.16ZM66.85,304.67c0,3.62.35,6.07,1.05,7.34.67,1.28,1.73,1.92,3.16,1.92s2.48-.62,3.19-1.85c.7-1.25,1.05-3.72,1.05-7.41s-.34-6.02-1.03-7.31c-.67-1.28-1.74-1.92-3.21-1.92s-2.46.62-3.16,1.85c-.7,1.23-1.05,3.7-1.05,7.38Z"/>
      <path class="cls-1" d="M119.85,306.69l8.46,2.98c-.72,3.48-2.37,6.34-4.95,8.55-2.61,2.23-6.2,3.35-10.78,3.35-6.25,0-10.87-1.63-13.87-4.9-3.02-3.25-4.52-7.22-4.52-11.91s1.48-8.73,4.43-12.02c2.95-3.3,6.79-4.95,11.51-4.95,3.83,0,6.95.95,9.35,2.84v-2.18h7.83v11.91h-8.13c-.42-1.48-1.13-2.66-2.13-3.52-1-.84-2.14-1.27-3.42-1.27-3.53,0-5.3,3.04-5.3,9.12s1.83,9.14,5.48,9.14c3.2,0,5.22-2.38,6.05-7.15Z"/>
      <path class="cls-1" d="M150.2,321.06h-17.67v-7.8h2.48v-16.99h-2.55v-7.8h17.74v7.8h-2.58v16.99h2.58v7.8ZM170.47,321.06h-16.87v-7.8h1.57l-7.15-9.28,8.3-7.71h-2.65v-7.8h16.05v7.8h-2.53l-6.66,6.19,8.32,10.8h1.62v7.8Z"/>
      <path class="cls-1" d="M191.59,321.06h-18.59v-7.8h3v-16.99h-3v-7.8h18.59v7.8h-2.98v16.99h2.98v7.8Z"/>
      <path class="cls-1" d="M208.25,321.06h-13.38v-7.8h2.86v-16.99h-2.86v-7.8h15.45l11.86,17.04v-9.23h-2.65v-7.8h13.15v7.8h-2.84v25.22h-10.73l-13.73-19.71v11.48h2.88v7.8Z"/>
      <path class="cls-1" d="M261.1,309.83h-3.33v-6.19h14.58c0,3.56-.25,6.21-.75,7.95-.48,1.67-1.5,3.37-3.05,5.09-1.52,1.7-3.35,2.95-5.51,3.73-2.16.78-4.47,1.17-6.94,1.17-3.67,0-7.01-.61-10.01-1.83-3.02-1.19-5.34-3.16-6.98-5.91-1.66-2.7-2.48-5.73-2.48-9.09,0-5.08,1.67-9.17,5.02-12.28,3.31-3.11,7.38-4.66,12.19-4.66,4.02,0,7.16.98,9.45,2.93v-2.27h7.85v11.39h-7.85c-.69-1.41-1.58-2.47-2.68-3.19-1.1-.72-2.39-1.08-3.86-1.08-2.06,0-3.58.67-4.55,2.02-.95,1.34-1.43,3.81-1.43,7.41s.5,6.01,1.5,7.29c1.02,1.3,2.49,1.95,4.43,1.95,2.94,0,4.41-1.47,4.41-4.41Z"/>
      <path class="cls-1" d="M306.64,321.06h-17.72v-7.8h2.65v-16.99h-2.65v-7.8h17.72c1.59,0,3.07.03,4.43.08,1.36.05,2.52.13,3.49.23.97.1,1.86.24,2.67.41,2.28.48,4.13,1.54,5.55,3.16,1.44,1.66,2.16,3.61,2.16,5.86,0,1.69-.44,3.22-1.31,4.59-.87,1.36-2.02,2.36-3.45,3l4.5,7.45h2.34v7.8h-11.74l-7.1-13.31h-4.01v5.51h2.46v7.8ZM304.18,295.6v6.21h1.41c1.84,0,3.09-.05,3.75-.16.7-.11,1.3-.42,1.78-.94.48-.48.73-1.15.73-1.99s-.24-1.52-.73-2.02c-.48-.52-1.1-.83-1.85-.94-.72-.11-2.03-.16-3.94-.16h-1.15Z"/>
      <path class="cls-1" d="M360.36,321.06h-18.45v-7.8h2.84v-16.99h-2.84v-7.8h19.92c3.91,0,6.93.23,9.07.68,2.11.47,3.77,1.4,4.97,2.79,1.2,1.42,1.8,3.08,1.8,4.97s-.57,3.31-1.71,4.41c-1.17,1.12-2.59,1.91-4.27,2.34,2.3.69,4.06,1.75,5.3,3.19,1.25,1.47,1.87,3.12,1.87,4.95,0,2.19-.7,4.05-2.11,5.58-1.41,1.52-3.34,2.51-5.79,2.98-2.42.48-5.96.73-10.62.73ZM357.36,295.6v5.95h2.79c1.89,0,3.13-.27,3.73-.82.56-.55.84-1.27.84-2.16,0-.77-.26-1.45-.77-2.06-.52-.61-1.93-.91-4.24-.91h-2.34ZM357.36,307.49v6.42h2.84c1.81,0,3.12-.23,3.91-.7.78-.47,1.17-1.3,1.17-2.48,0-1.11-.35-1.93-1.05-2.46-.7-.52-2.06-.77-4.08-.77h-2.79Z"/>
      <path class="cls-1" d="M393.29,321.06h-12.91v-7.8h2.48l6.12-16.99h-2.62v-7.8h23.44v7.8h-2.62l6.23,16.99h2.39v7.8h-17.02v-7.15h2.86l-1.24-4.1h-8.34l-1.43,4.1h2.67v7.15ZM396.36,296.73l-3.07,9.02h5.84l-2.77-9.02Z"/>
      <path class="cls-1" d="M436.14,321.06h-17.72v-7.8h2.65v-16.99h-2.65v-7.8h17.72c1.59,0,3.07.03,4.43.08,1.36.05,2.52.13,3.49.23.97.1,1.86.24,2.67.41,2.28.48,4.13,1.54,5.55,3.16,1.44,1.66,2.16,3.61,2.16,5.86,0,1.69-.44,3.22-1.31,4.59-.87,1.36-2.02,2.36-3.45,3l4.5,7.45h2.34v7.8h-11.74l-7.1-13.31h-4.01v5.51h2.46v7.8ZM433.67,295.6v6.21h1.41c1.84,0,3.09-.05,3.75-.16.7-.11,1.3-.42,1.78-.94.48-.48.73-1.15.73-1.99s-.24-1.52-.73-2.02c-.48-.52-1.1-.83-1.85-.94-.72-.11-2.03-.16-3.94-.16h-1.15Z"/>
    </g>
  </g>
</svg>