<?xml version="1.0" encoding="UTF-8"?>
<svg id="Layer_2" data-name="Layer 2" xmlns="http://www.w3.org/2000/svg" viewBox="0 0 706.15 207.77">
  <defs>
    <style>
      .cls-1 {
        fill: #fff;
        stroke-width: 0px;
      }
    </style>
  </defs>
  <g id="Layer_1-2" data-name="Layer 1">
    <g>
      <path class="cls-1" d="M534.72,207.77H2.45v-39.95h532.27v39.95ZM136.59,198.64h12.89v-2.43h-10.02v-5.75h9.81v-2.43h-9.81v-5.39h10.02v-2.43h-12.89v18.43ZM170.21,198.64h2.79v-18.43h-2.88v13.81l-10.45-13.81h-2.96v18.43h2.88v-14.14l10.62,14.14ZM181,198.64h6.85c5.99,0,9.96-3.87,9.96-9.2s-3.97-9.23-9.96-9.23h-6.85v18.43ZM183.87,196.21v-13.56h3.97c4.52,0,6.99,3.01,6.99,6.8s-2.56,6.77-6.99,6.77h-3.97ZM204.71,191.43c0,4.53,2.71,7.54,8.09,7.54s8.06-2.98,8.06-7.57v-11.19h-2.91v11.13c0,3.15-1.79,5.17-5.15,5.17s-5.18-2.02-5.18-5.17v-11.13h-2.91v11.22ZM239.86,198.64h3.34l-4.92-7.38c2.45-.3,4.78-2.07,4.78-5.39s-2.5-5.66-6.16-5.66h-8.09v18.43h2.88v-7.1h3.6l4.58,7.1ZM240.09,185.88c0,1.93-1.5,3.23-3.57,3.23h-4.84v-6.46h4.84c2.07,0,3.57,1.3,3.57,3.23ZM250.17,198.64h2.88v-18.43h-2.88v18.43ZM274.51,198.64h2.79v-18.43h-2.88v13.81l-10.45-13.81h-2.96v18.43h2.88v-14.14l10.62,14.14ZM284.37,189.44c0,5.75,4.46,9.56,9.96,9.56,3.25,0,5.9-1.3,7.74-3.26v-6.77h-9.04v2.43h6.16v3.31c-.92.83-2.73,1.82-4.86,1.82-4,0-6.99-2.98-6.99-7.1s2.99-7.07,6.99-7.07c2.25,0,4.17,1.08,5.27,2.49l2.33-1.3c-1.61-2.07-4-3.65-7.6-3.65-5.5,0-9.96,3.79-9.96,9.53ZM329.11,198.97c3.77,0,6.1-1.74,7.63-3.9l-2.45-1.24c-1.01,1.55-2.91,2.68-5.18,2.68-3.89,0-6.88-2.96-6.88-7.07s2.99-7.07,6.88-7.07c2.27,0,4.17,1.13,5.18,2.68l2.45-1.24c-1.5-2.16-3.86-3.9-7.63-3.9-5.47,0-9.84,3.87-9.84,9.53s4.37,9.53,9.84,9.53ZM341.96,189.44c0,5.47,3.94,9.53,9.67,9.53s9.67-4.06,9.67-9.53-3.94-9.53-9.67-9.53-9.67,4.06-9.67,9.53ZM358.34,189.44c0,4.03-2.65,7.07-6.71,7.07s-6.71-3.04-6.71-7.07,2.59-7.07,6.71-7.07,6.71,3.01,6.71,7.07ZM384.92,198.64h2.88v-18.43h-4.12l-5.58,13.23-5.58-13.23h-4.12v18.43h2.88v-14.64l6.22,14.64h1.21l6.22-14.64v14.64ZM412.32,198.64h2.88v-18.43h-4.12l-5.58,13.23-5.58-13.23h-4.12v18.43h2.88v-14.64l6.22,14.64h1.21l6.22-14.64v14.64ZM423.15,191.43c0,4.53,2.71,7.54,8.09,7.54s8.06-2.98,8.06-7.57v-11.19h-2.91v11.13c0,3.15-1.79,5.17-5.15,5.17s-5.18-2.02-5.18-5.17v-11.13h-2.91v11.22ZM460.75,198.64h2.79v-18.43h-2.88v13.81l-10.45-13.81h-2.96v18.43h2.88v-14.14l10.62,14.14ZM471.53,198.64h2.88v-18.43h-2.88v18.43ZM486.57,198.64h2.88v-16h5.93v-2.43h-14.76v2.43h5.96v16ZM508.11,198.64h2.88v-7.71l7.48-10.72h-3.34l-5.58,8.23-5.64-8.23h-3.31l7.51,10.72v7.71Z"/>
      <path class="cls-1" d="M705.87,207.77h-161.48v-39.95h161.48v39.95ZM563.79,198.64h6.85c5.99,0,9.96-3.87,9.96-9.2s-3.97-9.23-9.96-9.23h-6.85v18.43ZM566.67,196.21v-13.56h3.97c4.52,0,6.99,3.01,6.99,6.8s-2.56,6.77-6.99,6.77h-3.97ZM587.62,198.64h12.89v-2.43h-10.02v-5.75h9.81v-2.43h-9.81v-5.39h10.02v-2.43h-12.89v18.43ZM606.44,196.04c1.64,1.74,4.14,2.93,7.57,2.93,5.18,0,7.25-2.68,7.25-5.55,0-3.92-3.66-4.86-6.79-5.66-2.39-.58-4.46-1.11-4.46-2.76,0-1.55,1.47-2.6,3.6-2.6s4.09.66,5.56,2.15l1.67-2.04c-1.7-1.66-4.03-2.57-6.99-2.57-4,0-6.79,2.21-6.79,5.25,0,3.76,3.57,4.61,6.65,5.39,2.45.61,4.63,1.16,4.63,3.09,0,1.33-1.09,2.84-4.2,2.84-2.68,0-4.75-1.22-6.04-2.6l-1.64,2.13ZM628.25,198.64h2.88v-18.43h-2.88v18.43ZM638.16,189.44c0,5.75,4.46,9.56,9.96,9.56,3.25,0,5.9-1.3,7.74-3.26v-6.77h-9.04v2.43h6.16v3.31c-.92.83-2.73,1.82-4.86,1.82-4,0-6.99-2.98-6.99-7.1s2.99-7.07,6.99-7.07c2.25,0,4.17,1.08,5.27,2.49l2.33-1.3c-1.61-2.07-4-3.65-7.6-3.65-5.5,0-9.96,3.79-9.96,9.53ZM676.85,198.64h2.79v-18.43h-2.88v13.81l-10.45-13.81h-2.96v18.43h2.88v-14.14l10.62,14.14Z"/>
      <path class="cls-1" d="M33.74,20.09l-6.71,3.98c-1.25-2.18-2.45-3.6-3.59-4.26-1.19-.76-2.71-1.14-4.58-1.14-2.3,0-4.2.65-5.72,1.95-1.52,1.28-2.27,2.89-2.27,4.83,0,2.68,1.99,4.84,5.97,6.47l5.47,2.24c4.45,1.8,7.71,4,9.77,6.59,2.06,2.59,3.09,5.78,3.09,9.54,0,5.04-1.68,9.22-5.04,12.51-3.39,3.32-7.59,4.97-12.61,4.97-4.76,0-8.69-1.42-11.79-4.25-3.05-2.83-4.96-6.8-5.72-11.91l8.38-1.85c.38,3.22,1.04,5.45,1.99,6.68,1.7,2.37,4.19,3.55,7.46,3.55,2.58,0,4.72-.86,6.43-2.59,1.7-1.73,2.56-3.92,2.56-6.57,0-1.07-.15-2.04-.44-2.93-.3-.89-.76-1.7-1.39-2.45-.63-.75-1.44-1.45-2.43-2.09-.99-.65-2.18-1.27-3.55-1.86l-5.29-2.2c-7.51-3.17-11.26-7.81-11.26-13.91,0-4.12,1.57-7.56,4.72-10.33,3.15-2.79,7.07-4.19,11.76-4.19,6.32,0,11.26,3.07,14.81,9.2ZM87.54,53.48h-23.47l-6.11,13.32h-8.92l27.13-58.28,26.18,58.28h-9.06l-5.75-13.32ZM84.17,45.7l-8.14-18.65-8.52,18.65h16.66ZM119.39,66.8V8.23l39.99,41.84V11.96h8.28v58.18l-39.99-41.73v38.39h-8.28ZM190.98,66.8V11.96h11.51c5.52,0,9.87.54,13.07,1.63,3.43,1.07,6.55,2.88,9.34,5.43,5.66,5.16,8.49,11.95,8.49,20.35s-2.95,15.25-8.84,20.46c-2.96,2.6-6.06,4.42-9.31,5.43-3.03,1.02-7.33,1.53-12.89,1.53h-11.37ZM199.25,59.02h3.73c3.72,0,6.81-.39,9.27-1.17,2.46-.83,4.69-2.14,6.68-3.94,4.07-3.72,6.11-8.56,6.11-14.53s-2.01-10.89-6.04-14.63c-3.62-3.34-8.96-5.01-16.02-5.01h-3.73v39.28ZM284.23,19.74h-21.98v13.18h21.34v7.78h-21.34v18.33h21.98v7.78h-30.26V11.96h30.26v7.78ZM328.23,43.43l16.98,23.37h-10.12l-15.66-22.45h-1.49v22.45h-8.28V11.96h9.7c7.24,0,12.48,1.36,15.7,4.08,3.55,3.03,5.33,7.03,5.33,12,0,3.88-1.11,7.22-3.34,10.02-2.23,2.79-5.16,4.58-8.81,5.36ZM317.93,37.14h2.63c7.84,0,11.76-2.99,11.76-8.99,0-5.61-3.81-8.42-11.44-8.42h-2.95v17.4ZM393.03,20.09l-6.71,3.98c-1.25-2.18-2.45-3.6-3.58-4.26-1.19-.76-2.71-1.14-4.58-1.14-2.3,0-4.2.65-5.72,1.95-1.52,1.28-2.28,2.89-2.28,4.83,0,2.68,1.99,4.84,5.97,6.47l5.47,2.24c4.45,1.8,7.71,4,9.76,6.59,2.06,2.59,3.09,5.78,3.09,9.54,0,5.04-1.68,9.22-5.04,12.51-3.39,3.32-7.59,4.97-12.61,4.97-4.76,0-8.69-1.42-11.79-4.25-3.06-2.83-4.96-6.8-5.72-11.91l8.38-1.85c.38,3.22,1.04,5.45,1.99,6.68,1.71,2.37,4.19,3.55,7.46,3.55,2.58,0,4.72-.86,6.43-2.59,1.71-1.73,2.56-3.92,2.56-6.57,0-1.07-.15-2.04-.44-2.93-.3-.89-.76-1.7-1.38-2.45-.63-.75-1.44-1.45-2.43-2.09-.99-.65-2.18-1.27-3.55-1.86l-5.29-2.2c-7.51-3.17-11.26-7.81-11.26-13.91,0-4.12,1.57-7.56,4.73-10.33,3.15-2.79,7.07-4.19,11.75-4.19,6.32,0,11.26,3.07,14.81,9.2ZM411.88,39.13c0-7.72,2.83-14.35,8.49-19.89,5.63-5.54,12.41-8.31,20.31-8.31s14.51,2.79,20.1,8.38c5.61,5.59,8.42,12.3,8.42,20.14s-2.82,14.57-8.45,20.07c-5.66,5.52-12.49,8.28-20.49,8.28-7.08,0-13.44-2.45-19.07-7.35-6.21-5.42-9.31-12.53-9.31-21.31ZM420.23,39.22c0,6.06,2.04,11.04,6.11,14.94,4.05,3.91,8.72,5.86,14.03,5.86,5.75,0,10.61-1.99,14.56-5.96,3.96-4.02,5.93-8.92,5.93-14.69s-1.96-10.74-5.86-14.69c-3.88-3.98-8.69-5.96-14.42-5.96s-10.53,1.99-14.46,5.96c-3.93,3.93-5.9,8.78-5.9,14.55ZM491.25,66.8V8.23l39.99,41.84V11.96h8.28v58.18l-39.99-41.73v38.39h-8.27Z"/>
      <path class="cls-1" d="M196.02,95.5l-6.71,3.98c-1.26-2.18-2.45-3.6-3.59-4.26-1.18-.76-2.71-1.14-4.58-1.14-2.3,0-4.2.65-5.72,1.96-1.51,1.28-2.27,2.89-2.27,4.83,0,2.68,1.99,4.83,5.97,6.47l5.47,2.24c4.45,1.8,7.71,4,9.77,6.59,2.06,2.59,3.09,5.78,3.09,9.54,0,5.05-1.68,9.22-5.04,12.51-3.39,3.32-7.59,4.98-12.61,4.98-4.76,0-8.69-1.42-11.79-4.25-3.05-2.83-4.96-6.8-5.72-11.91l8.38-1.85c.38,3.22,1.04,5.45,1.99,6.68,1.71,2.37,4.19,3.55,7.46,3.55,2.58,0,4.72-.86,6.43-2.59,1.71-1.72,2.56-3.91,2.56-6.56,0-1.07-.15-2.04-.44-2.93-.3-.89-.76-1.7-1.38-2.45-.63-.74-1.44-1.44-2.43-2.1-.99-.65-2.18-1.27-3.55-1.86l-5.29-2.2c-7.51-3.17-11.26-7.81-11.26-13.91,0-4.12,1.58-7.56,4.72-10.33,3.15-2.79,7.07-4.19,11.76-4.19,6.32,0,11.26,3.07,14.81,9.2ZM232.3,95.15v47.06h-8.27v-47.06h-12.61v-7.78h33.46v7.78h-12.57ZM294.16,95.15h-21.98v13.18h21.34v7.78h-21.34v18.33h21.98v7.78h-30.26v-54.84h30.26v7.78ZM319.36,87.37l14.28,36.65,14.92-39.32,14.28,39.32,15.17-36.65h8.98l-24.51,58.32-14.1-38.86-14.71,38.89-23.3-58.36h8.98ZM428.64,128.89h-23.48l-6.11,13.32h-8.91l27.13-58.28,26.17,58.28h-9.05l-5.75-13.32ZM425.26,121.11l-8.13-18.65-8.52,18.65h16.66ZM479.06,118.84l16.98,23.37h-10.12l-15.66-22.44h-1.49v22.44h-8.28v-54.84h9.7c7.25,0,12.48,1.36,15.7,4.08,3.55,3.03,5.33,7.03,5.33,12.01,0,3.88-1.11,7.22-3.34,10.01-2.23,2.79-5.17,4.58-8.81,5.36ZM468.76,112.55h2.63c7.83,0,11.75-3,11.75-8.98,0-5.61-3.81-8.42-11.44-8.42h-2.95v17.4ZM530.39,95.15v47.06h-8.27v-47.06h-12.61v-7.78h33.46v7.78h-12.57Z"/>
      <path class="cls-1" d="M644.77,93.21c-4.61,2.28-9.32,4.32-14.1,6.13-.98-.67-1.95-1.36-2.9-2.07-8.16-6.11-14.88-13.44-19.97-21.34,9.16.12,18.31-.52,27.32-1.98,23.85-3.82,46.64-13.22,66.16-27.07-15.13,19.61-34.62,35.57-56.5,46.33ZM692.44,111.86c8.61-11.65,13.7-26.06,13.7-41.66,0-6.32-.85-12.44-2.42-18.27-14.27,20.06-33.04,37.04-54.7,49.22-2.63,1.49-5.31,2.89-8.02,4.23,16.77,8.3,36.14,11.26,51.43,6.48ZM602.67,66.65c10.39,1.03,20.93,1,31.38-.17,23.45-2.58,46.41-10.82,66.43-23.92-10.73-25.02-35.59-42.55-64.54-42.55-7.77,0-15.23,1.28-22.22,3.61-19.25,14.57-21.68,40.1-11.05,63.04ZM628.31,111.04c-12.88,5.11-26.41,8.65-40.21,10.52,12.54,11.69,29.35,18.85,47.85,18.85,17.37,0,33.25-6.32,45.5-16.76-17.8,2.54-37.2-2.45-53.14-12.61ZM618.18,103.47c-9.25-8.02-16.65-17.76-21.71-28.09-10.37-.88-20.67-2.76-30.71-5.65,0,.16-.01.31-.01.46,0,14.62,4.47,28.19,12.12,39.43,13.57-.31,27.16-2.39,40.32-6.16ZM592.31,65.26c-7.23-21.84-3.88-44.69,14.29-58.83-20.73,9.55-35.99,28.9-39.88,52.11,8.29,2.98,16.86,5.24,25.59,6.72Z"/>
    </g>
  </g>
</svg>