<?xml version="1.0" encoding="UTF-8"?>
<svg id="Layer_2" data-name="Layer 2" xmlns="http://www.w3.org/2000/svg" viewBox="0 0 459.25 396.03">
  <defs>
    <style>
      .cls-1 {
        fill: #fff;
        stroke-width: 0px;
      }
    </style>
  </defs>
  <g id="Layer_1-2" data-name="Layer 1">
    <g>
      <path class="cls-1" d="M60.51,159.94l46.14.31v.16l5.66.04h2s.89,1.81.89,1.81c15.75,31.88,66.91,78.19,131.35,81.34,37.81,1.85,61.71-2.82,73.07-14.27,6.21-6.26,8.94-14.75,8.3-25.98-.98-17.39-41.78-27.19-84.95-37.54-62.31-14.97-132.94-31.92-129.61-79.93,2.74-39.55,76.89-57.33,145.24-54,12.13.59,24.33,1.74,36.13,2.85,11.51,1.08,23.42,2.2,34.93,2.77,15.4.76,29.38.76,43.98.01l3.28-.16.14,3.27c.44,10.32,5.24,24.04,9.89,37.29,1.68,4.81,3.3,9.45,4.69,13.84l44.84.03.31-91.02L222.52,0C52.14-.6,60.64,122.06,60.64,122.06l-.14,37.88Z"/>
      <g>
        <path class="cls-1" d="M395.38,106.17l.08.34-4.11-.07-17.09-.3-1.43-.02-.95-1.08c-20.9-23.65-52.5-59.4-115.1-62.46-43.95-2.15-70.91,8.41-72.12,28.24-1.46,23.82,44.86,34.4,93.9,45.61,59.36,13.54,126.63,28.91,123.87,74.14-2.95,48.23-74.66,78.51-174.4,73.63-40.39-1.98-74.37-9.24-101.67-15.07l-15.1-3.17s-2.15-.44-2.17-.46l-.38-2.17-12.02-68.74-36.23-.25-.42,117.43,221.77.79s153.9,9.89,154.27-94.54l.33-91.84-41.03-.03Z"/>
        <path class="cls-1" d="M34.17,277.58h1.88c2.13,0,3.94-.78,3.94-2.78,0-1.42-1.03-2.84-3.94-2.84-.84,0-1.42.06-1.88.12v5.5ZM34.17,286.57h-2.58v-16.23c1.36-.2,2.65-.39,4.59-.39,2.46,0,4.07.52,5.05,1.23.97.7,1.49,1.81,1.49,3.35,0,2.14-1.43,3.43-3.17,3.95v.12c1.43.27,2.4,1.56,2.72,3.95.39,2.52.77,3.5,1.04,4.01h-2.73c-.38-.52-.78-2.01-1.09-4.14-.4-2.07-1.43-2.85-3.5-2.85h-1.81v6.99ZM36.89,265.81c-6.4,0-11.64,5.49-11.64,12.29s5.23,12.34,11.69,12.34c6.48.06,11.65-5.44,11.65-12.28s-5.17-12.35-11.65-12.35h-.05ZM36.95,263.55c7.96,0,14.3,6.46,14.3,14.55s-6.34,14.61-14.35,14.61-14.42-6.4-14.42-14.61,6.47-14.55,14.42-14.55h.05Z"/>
      </g>
    </g>
    <g>
      <path class="cls-1" d="M8.1,361.6l1.46-.16c2.19,7.55,9.24,19.47,18.31,19.47,8.1,0,13.53-5.25,13.53-13.75,0-14.22-30.55-9.06-30.55-27.41,0-9.61,9.07-14.94,17.99-14.94,3.16,0,6.32.56,9.4.56,1.94,0,3.81-.16,5.83-.56.24,4.61,1.05,11.12,1.7,15.65l-1.13.39c-3.16-6.27-7.7-14.93-15.96-14.93-6.24,0-10.78,3.65-10.78,9.14,0,14.94,30.3,7.71,30.3,28.12,0,12.87-10.86,18.83-22.77,18.83-6.32,0-11.59-1.03-15.56-2.22l-1.78-18.19Z"/>
      <path class="cls-1" d="M60.82,357.55h9.24v1.11h-9.24v-1.11ZM52.24,360.25c0-1.19-.4-1.98-1.7-1.98h-1.86v-1.11c4.05-1.19,9.72-9.37,11.75-12.55l4.13-6.35.97.63-3.97,6.04c-.89,1.43-1.62,2.46-1.62,4.61v25.74c0,2.38.81,4.05,3.49,4.05s5.59-3.41,6.97-5.8l.73.48c-2.02,3.73-5.43,8.02-10.61,8.02s-8.27-3.26-8.27-8.58v-13.19Z"/>
      <path class="cls-1" d="M90.06,369.46c0-5.56-1.54-11.44-5.83-11.44-4.62,0-5.91,4.85-5.91,11.44s1.3,11.44,5.91,11.44c4.3,0,5.83-5.88,5.83-11.44M98,369.46c0,7.23-5.83,12.55-14.02,12.55s-14.02-5.32-14.02-12.55,5.91-12.55,14.02-12.55,14.02,5.32,14.02,12.55"/>
      <path class="cls-1" d="M126.34,366.12l-.97.24c-2.35-3.65-6.73-8.34-11.51-8.34s-5.91,4.85-5.91,11.44,1.3,11.44,5.91,11.44c5.02,0,10.37-2.86,11.99-8.66l.81.24c-1.94,6.83-7.62,9.53-13.05,9.53-8.1,0-14.01-5.32-14.01-12.55s5.91-12.55,13.2-12.55c1.54,0,2.84.16,3.97.4,1.13.24,2.11.47,2.84.32,1.22.08,2.59-.16,3.81-.48l2.92,8.98Z"/>
      <path class="cls-1" d="M144.65,381.38v-1.11h1.38c.97,0,2.27-.4,2.27-1.51,0-1.03-.57-1.75-1.21-2.62l-5.35-7.31-3.89,3.34v5c0,1.83.57,3.1,3.24,3.1h1.46v1.11h-17.99v-1.11h2.68c1.13,0,2.59-.79,2.59-3.57v-44.81c0-2.54-1.46-3.42-5.43-3.42v-1.11h5.27c2.67,0,6.32-.32,8.18-.95v44.49l9.32-7.86c.89-.71,1.86-1.67,1.86-2.86,0-1.03-.48-1.51-1.7-1.51h-3.24v-1.11h15.88v1.11h-3.97c-1.86,0-2.92.48-4.21,1.59l-3.24,2.78c-.4.4-.73.88-.73,1.19,0,.48.33.88.65,1.35l8.75,11.68c1.05,1.35,2.18,2.86,4.62,3.02v1.11h-17.18Z"/>
      <path class="cls-1" d="M199.99,381.38v-1.11c1.78,0,3.73-.4,3.73-2.86v-12.87c0-4.13-1.22-5.4-3.89-5.4-1.22,0-2.11.4-7.53,6.2v10.96c0,2.54.81,3.97,2.92,3.97h2.02v1.11h-16.53v-1.11c1.78,0,3.81-.4,3.81-2.86v-12.87c0-4.13-1.22-5.4-3.89-5.4-1.22,0-2.11.4-7.54,6.2v10.96c0,2.54.81,3.97,2.92,3.97h2.02v1.11h-17.42v-1.11h1.46c2.51,0,3.48-1.91,3.48-3.81v-15.09c0-1.43-1.21-2.7-2.83-2.7h-1.86v-1.11h2.59c3.16,0,7.13-.24,9.48-.64v7.15c5.59-6.04,6.89-7.07,10.21-7.15,4.38,0,7.7,3.73,8.75,7.15,5.59-6.04,6.89-7.07,10.21-7.15,6.32,0,9.4,5.56,9.4,10.65v8.74c0,2.54.81,3.97,2.92,3.97h3v1.11h-17.42Z"/>
      <path class="cls-1" d="M227.78,379.95c2.35,0,4.13-1.19,5.35-3.18v-9.22c-4.62.08-10.13,1.35-10.13,6.91,0,2.7,1.86,5.48,4.78,5.48M240.9,376.77c.08,1.91.57,2.54,1.78,2.54,1.94,0,3.16-2.7,3.64-4.21l1.13.48c-1.62,3.81-4.05,6.43-8.1,6.43-2.67,0-5.03-1.19-5.83-3.34-2.35,1.91-5.51,3.34-9.16,3.34-5.27,0-8.5-2.7-8.5-6.67,0-10.17,17.17-7.47,17.09-9.69v-4.85c0-1.75-1.05-2.78-2.67-2.78-2.27,0-3.24,1.59-3.24,3.65s1.21,2.38,1.62,2.94v.55c0,.24-.08.88-.57.88-.32,0-.81-.16-1.22-.4l-5.51-2.54c.57-2.31,3.64-6.2,9.4-6.2,6.24,0,9.72,3.97,9.96,10.09l.16,9.77Z"/>
      <path class="cls-1" d="M245.9,381.38v-1.11h1.54c2.43,0,3.4-1.98,3.4-3.81v-15.09c0-1.43-1.21-2.7-2.83-2.7h-1.86v-1.11h2.59c3.08,0,6.72-.32,9.24-.64v6.91l2.51-2.54c2.27-2.22,4.13-4.37,7.7-4.37,5.75,0,8.83,5.56,8.83,10.65v9.85c0,1.83,1.38,2.86,2.84,2.86h2.43v1.11h-16.69v-1.11c2.19,0,4.05-.64,4.05-3.1v-12.79c0-2.46-.89-5.4-3.89-5.4-1.62,0-2.92,1.27-3.97,2.3l-3.65,3.74v12.15c0,1.91,1.22,3.1,3.24,3.1h1.22v1.11h-16.69Z"/>
      <path class="cls-1" d="M316.46,374.55c0,5.08,3.57,6.19,8.18,6.19h3.73c6.4,0,11.02-6.99,11.02-13.5s-4.78-15.25-13.13-15.25h-9.8v22.56ZM316.46,350.63c.73.16,1.54.24,2.51.24h4.62c6.81,0,9.97-4.69,9.97-11.04,0-7.47-5.27-13.27-11.67-13.27-2.11,0-5.43,2.86-5.43,4.13v19.94ZM328.37,325.45c6.08,0,15.4,6.28,15.4,14.7,0,6.75-5.27,10.17-9.64,11.12v.16c7.7,1.19,15.48,6.44,15.48,14.22,0,10.65-7.29,16.21-17.99,16.21-4.62,0-8.99-.48-13.05-.48h-19.04v-1.11c.73,0,1.38-.16,1.94-.32,1.62-.48,5.03-3.5,5.03-4.45v-45.12c-.65-.71-3.08-3.5-3.97-3.58l-3-.24v-1.11h28.84Z"/>
      <path class="cls-1" d="M362.07,379.95c2.35,0,4.13-1.19,5.35-3.18v-9.22c-4.62.08-10.13,1.35-10.13,6.91,0,2.7,1.86,5.48,4.78,5.48M375.19,376.77c.08,1.91.57,2.54,1.78,2.54,1.94,0,3.16-2.7,3.65-4.21l1.13.48c-1.62,3.81-4.05,6.43-8.1,6.43-2.67,0-5.02-1.19-5.83-3.34-2.35,1.91-5.51,3.34-9.16,3.34-5.27,0-8.51-2.7-8.51-6.67,0-10.17,17.18-7.47,17.1-9.69v-4.85c0-1.75-1.05-2.78-2.68-2.78-2.27,0-3.24,1.59-3.24,3.65s1.21,2.38,1.62,2.94v.55c0,.24-.08.88-.57.88-.32,0-.81-.16-1.22-.4l-5.51-2.54c.57-2.31,3.64-6.2,9.4-6.2,6.24,0,9.72,3.97,9.97,10.09l.16,9.77Z"/>
      <path class="cls-1" d="M378.58,381.38v-1.11h1.54c2.43,0,3.4-1.98,3.4-3.81v-15.09c0-1.43-1.22-2.7-2.84-2.7h-1.86v-1.11h2.6c3.08,0,6.72-.32,9.24-.64v6.91l2.51-2.54c2.27-2.22,4.13-4.37,7.7-4.37,5.76,0,8.83,5.56,8.83,10.65v9.85c0,1.83,1.38,2.86,2.84,2.86h2.43v1.11h-16.69v-1.11c2.19,0,4.05-.64,4.05-3.1v-12.79c0-2.46-.89-5.4-3.89-5.4-1.62,0-2.92,1.27-3.97,2.3l-3.65,3.74v12.15c0,1.91,1.22,3.1,3.24,3.1h1.22v1.11h-16.69Z"/>
      <path class="cls-1" d="M433.43,381.38v-1.11h1.38c.97,0,2.27-.4,2.27-1.51,0-1.03-.57-1.75-1.22-2.62l-5.35-7.31-3.89,3.34v5c0,1.83.57,3.1,3.25,3.1h1.46v1.11h-17.99v-1.11h2.67c1.13,0,2.59-.79,2.59-3.57v-44.81c0-2.54-1.46-3.42-5.42-3.42v-1.11h5.26c2.67,0,6.32-.32,8.18-.95v44.49l9.32-7.86c.89-.71,1.86-1.67,1.86-2.86,0-1.03-.48-1.51-1.7-1.51h-3.24v-1.11h15.88v1.11h-3.97c-1.87,0-2.92.48-4.22,1.59l-3.24,2.78c-.41.4-.73.88-.73,1.19,0,.48.32.88.65,1.35l8.75,11.68c1.05,1.35,2.19,2.86,4.62,3.02v1.11h-17.18Z"/>
      <rect class="cls-1" x="4.41" y="388.72" width="450.36" height="1.32"/>
      <rect class="cls-1" y="393.16" width="459.25" height="2.87"/>
    </g>
  </g>
</svg>