<?xml version="1.0" encoding="UTF-8"?>
<svg id="Layer_2" data-name="Layer 2" xmlns="http://www.w3.org/2000/svg" xmlns:xlink="http://www.w3.org/1999/xlink" viewBox="0 0 3326 880">
  <defs>
    <style>
      .cls-1 {
        clip-path: url(#clippath);
      }

      .cls-2 {
        fill: none;
      }

      .cls-2, .cls-3, .cls-4 {
        stroke-width: 0px;
      }

      .cls-5 {
        clip-path: url(#clippath-1);
      }

      .cls-3 {
        fill: #fff;
      }

      .cls-4 {
        fill: #003da6;
      }
    </style>
    <clipPath id="clippath">
      <rect class="cls-2" y="0" width="3326" height="880"/>
    </clipPath>
    <clipPath id="clippath-1">
      <rect class="cls-2" y="0" width="3326" height="880"/>
    </clipPath>
  </defs>
  <g id="Layer_1-2" data-name="Layer 1">
    <g id="Friends-Of-MontanaPBS_LOGO_White_PMS293_v19">
      <g class="cls-1">
        <g class="cls-5">
          <path class="cls-3" d="M2483.31,498.44c0,140.76-114.1,254.86-254.86,254.86s-254.86-114.1-254.86-254.86,114.11-254.86,254.86-254.86,254.86,114.11,254.86,254.86"/>
          <path class="cls-3" d="M3121.82,470.05c-27.88-14.44-50.41-26.2-50.41-48.57,0-15.81,13.53-25.64,36.31-25.64,27.05,0,51.05,8.75,69.46,19.68v-57.55c-19.28-8.3-45.78-15.27-69.5-15.27-67.25,0-97.36,40.06-97.36,83.39,0,50.87,34.25,75.28,72.03,95.24,37.25,19.69,51.35,28.23,51.35,49.48,0,17.98-15.6,28.3-41.74,28.3-36.32,0-62.08-16.79-78.8-30.21l.05,61.19c15.66,10.94,49.33,24.1,78.36,24.1,65.28,0,106.45-34.06,106.45-88.89s-48.31-80.8-76.18-95.24"/>
          <path class="cls-3" d="M2624.11,345.53h-80.62v305.83h60.18v-97.29h12.12c75.35,0,122.15-40.07,122.15-104.57s-42.56-103.98-113.83-103.98M2603.67,396.51h17.69c35.33,0,58.16,20.44,58.16,52.08,0,34.27-21.03,53.92-57.69,53.92h-18.16v-106Z"/>
          <path class="cls-3" d="M2930.04,486.67c20.38-14.3,30.3-34.92,30.3-62.89,0-48.27-35.48-78.26-92.59-78.26h-93.36v305.83h97.52c74.74,0,108.78-47.99,108.78-92.59,0-35.28-19.29-62.53-50.64-72.1M2863.45,397.04c23.55,0,38.76,14.67,38.76,37.37s-16.49,37.84-42,37.84h-25.61v-75.21h28.85ZM2834.6,600.31v-79.83h38.09c30.35,0,48.47,14.84,48.47,39.69,0,26.64-18.17,40.14-54.02,40.14h-32.55Z"/>
          <path class="cls-4" d="M2414.05,500.93l-28.29,5.75v52.29c0,17.56-14.44,31.57-33.14,31.57h-14.47v60.81h-46.55v-60.81h14.47c18.69,0,33.14-14.01,33.14-31.57v-52.29l28.29-5.75c6.13-1.25,9.36-8.02,6.46-13.57l-74.18-141.84h46.55l74.18,141.84c2.9,5.54-.32,12.32-6.46,13.57"/>
          <path class="cls-4" d="M2318.71,487.37l-74.18-141.84h-76.77c-69.83,0-129.13,57.16-127.47,126.97,1.24,52.09,34.85,91.12,81.56,105.8v73.06h114.52v-60.81h14.47c18.69,0,33.14-14.01,33.14-31.57v-52.29l28.28-5.75c6.13-1.25,9.35-8.02,6.46-13.57M2222.17,479.26c-16.09,0-29.13-13.04-29.13-29.13s13.04-29.13,29.13-29.13,29.13,13.04,29.13,29.13-13.04,29.13-29.13,29.13"/>
          <polygon class="cls-3" points="282.44 515.71 177.51 345.3 128.17 345.3 128.17 652.05 179.53 652.05 179.53 443.75 273.63 592.7 287.67 592.7 380.87 445.1 380.87 652.05 432.67 652.05 432.67 345.3 387.38 345.3 282.44 515.71"/>
          <path class="cls-3" d="M654.08,433.72c-17.08-9.44-36.68-14.23-58.24-14.23s-42.13,4.71-59.36,14c-17.24,9.29-30.99,23.05-40.89,40.89-9.89,17.83-14.9,39.32-14.9,63.86s4.94,45.6,14.67,63.41c9.74,17.84,23.42,31.67,40.67,41.12,17.23,9.44,36.75,14.22,58.02,14.22s41.76-4.94,59.15-14.68c17.39-9.74,31.22-23.88,41.11-42.01,9.89-18.12,14.9-39.91,14.9-64.76,0-23.05-4.94-43.63-14.68-61.17-9.75-17.54-23.35-31.22-40.44-40.66M594.94,611.49c-17.15,0-31.47-6.52-42.56-19.39-11.11-12.89-16.74-31.16-16.74-54.31s5.63-42.01,16.73-54.3c11.09-12.27,25.57-18.49,43.02-18.49s32.15,6.3,42.79,18.71c10.66,12.44,16.07,30.18,16.07,52.73,0,24.04-5.63,42.77-16.74,55.65-11.09,12.86-25.41,19.39-42.56,19.39"/>
          <path class="cls-3" d="M933.19,440.32c-14.28-13.82-33.83-20.82-58.12-20.82-14.99,0-28.21,2.28-39.31,6.78-10.86,4.4-21.43,10.61-31.42,18.46l-4.41-20.29h-44.97v227.62h52.26v-161.71c7.38-7.06,15.46-13.04,24.02-17.76,8.58-4.73,18.64-7.13,29.88-7.13,13.87,0,24.33,3.88,31.1,11.52,6.78,7.67,10.22,18.45,10.22,32.04v143.03h52.26v-152.93c0-25.2-7.24-44.98-21.51-58.81Z"/>
          <path class="cls-3" d="M1073.4,359.97l-52.26,15.58v48.88h-32.82v41.02h32.82v122.7c0,21.02,5.72,37.92,16.99,50.25,11.28,12.34,29.03,18.6,52.75,18.6,8.06,0,16.02-.61,23.68-1.8,7.65-1.2,13.82-2.73,18.32-4.53l.31-.12v-43.75l-.66.22c-8.89,2.97-18.37,4.47-28.17,4.47-20.84,0-30.98-10.72-30.98-32.77v-113.26h61.15v-41.02h-61.15v-64.47Z"/>
          <path class="cls-3" d="M1257.25,419.49c-26.91,0-53.29,4.85-78.41,14.42l-.32.12v47.91l.72-.35c10.99-5.35,22.83-9.57,35.19-12.55,12.36-2.98,24.5-4.48,36.08-4.48,19.52,0,32.7,4.39,39.17,13.06,6.5,8.72,9.79,21.1,9.79,36.8v1.63c-11.81-2.6-24.64-3.92-38.17-3.92-29.63,0-54.23,5.92-73.1,17.61-18.95,11.73-28.56,30.79-28.56,56.63,0,21.63,6.78,38.99,20.17,51.62,13.37,12.62,31.56,19.02,54.07,19.02,14.39,0,27.84-2.51,39.98-7.46,11.85-4.83,21.91-10.81,29.91-17.79l6.18,20.29h41.79v-142.58c0-28.78-7.99-51.21-23.76-66.68-15.76-15.46-39.56-23.3-70.72-23.3M1299.46,553.05v41.15c-17.15,12.07-34.98,18.19-53.01,18.19-10.31,0-18.44-2.68-24.17-7.96-5.71-5.27-8.61-11.96-8.61-19.87,0-12.62,5.42-21.54,16.12-26.53,10.83-5.04,24.14-7.6,39.58-7.6,10.84,0,20.96.88,30.08,2.61"/>
          <path class="cls-3" d="M1589.2,440.32c-14.28-13.82-33.83-20.82-58.13-20.82-14.99,0-28.21,2.28-39.31,6.78-10.86,4.4-21.43,10.61-31.42,18.46l-4.41-20.29h-44.97v227.62h52.26v-161.71c7.38-7.06,15.46-13.04,24.02-17.76,8.58-4.73,18.64-7.13,29.89-7.13,13.87,0,24.33,3.88,31.1,11.52,6.78,7.67,10.22,18.45,10.22,32.04v143.03h52.26v-152.93c0-25.2-7.24-44.98-21.51-58.81Z"/>
          <path class="cls-3" d="M1826.16,442.79c-15.76-15.46-39.55-23.3-70.72-23.3-26.91,0-53.29,4.85-78.42,14.42l-.32.12v47.91l.72-.35c10.99-5.35,22.83-9.57,35.19-12.55,12.36-2.98,24.5-4.48,36.08-4.48,19.52,0,32.7,4.39,39.17,13.06,6.5,8.72,9.79,21.1,9.79,36.8v1.63c-11.81-2.6-24.64-3.92-38.17-3.92-29.63,0-54.23,5.92-73.1,17.61-18.95,11.73-28.56,30.79-28.56,56.63,0,21.63,6.78,38.99,20.17,51.62,13.37,12.62,31.56,19.02,54.07,19.02,14.39,0,27.84-2.51,39.98-7.46,11.85-4.83,21.9-10.81,29.91-17.79l6.18,20.3h41.78v-142.58c0-28.78-7.99-51.21-23.76-66.68M1797.66,553.05v41.15c-17.15,12.07-34.98,18.19-53.01,18.19-10.31,0-18.44-2.68-24.17-7.96-5.71-5.27-8.61-11.96-8.61-19.87,0-12.62,5.42-21.54,16.12-26.53,10.83-5.04,24.14-7.6,39.58-7.6,10.84,0,20.96.88,30.08,2.61"/>
          <polygon class="cls-3" points="127.8 283.93 157.09 283.93 157.09 221.17 215.3 221.17 215.3 196.89 157.09 196.89 157.09 151.83 219.39 151.83 219.39 127.31 127.8 127.31 127.8 283.93"/>
          <path class="cls-3" d="M299.56,165.51c-6.98,0-13.04,1.54-18.03,4.58-4.27,2.6-7.83,5.95-10.62,10l-2.83-12.76h-24.09v116.6h27.93v-78c6.42-9.35,15.03-14.09,25.6-14.09,3.98,0,8.4.68,13.14,2.01l1.27.36v-27.06l-.69-.23c-2.82-.94-6.75-1.42-11.69-1.42"/>
          <rect class="cls-3" x="331.07" y="167.33" width="27.93" height="116.6"/>
          <path class="cls-3" d="M357.07,124.61c-3.36-3.04-7.41-4.58-12.04-4.58s-8.85,1.55-12.06,4.6c-3.22,3.06-4.86,6.98-4.86,11.64s1.67,8.59,4.98,11.65c3.28,3.04,7.3,4.59,11.94,4.59s8.69-1.54,12.04-4.58c3.39-3.06,5.11-6.98,5.11-11.66s-1.72-8.59-5.11-11.66"/>
          <path class="cls-3" d="M468.22,172.14c-7.93-4.85-17.33-7.31-27.92-7.31s-20.96,2.53-29.5,7.53c-8.54,5-15.29,12.18-20.05,21.32-4.75,9.12-7.16,19.79-7.16,31.73s2.57,23.08,7.63,32.2c5.08,9.15,12.44,16.33,21.89,21.32,9.43,4.98,20.64,7.51,33.32,7.51,7.3,0,14.52-.73,21.46-2.18,6.95-1.45,12.8-3.35,17.41-5.65l.55-.28v-25.77l-1.5.86c-10.41,5.95-22.56,8.96-36.11,8.96-20.73,0-32.12-9.39-34.79-28.69h77.84l.2-.74c.78-2.81,1.17-7.03,1.17-12.55,0-10.41-2.1-19.93-6.24-28.3-4.16-8.39-10.29-15.11-18.22-19.96M414.24,212.12c1.55-7.2,4.61-12.88,9.11-16.89,4.71-4.21,10.57-6.34,17.41-6.34,7.25,0,13.13,2.34,17.46,6.96,4.13,4.41,6.61,9.88,7.35,16.27h-51.33Z"/>
          <path class="cls-3" d="M608.68,175.57c-7.36-7.13-17.43-10.74-29.91-10.74-7.67,0-14.46,1.17-20.16,3.48-5.22,2.11-10.3,5.04-15.13,8.71l-2.11-9.69h-24.09v116.6h27.93v-82.2c3.62-3.43,7.57-6.34,11.76-8.65,4.23-2.33,9.19-3.51,14.75-3.51,6.79,0,11.89,1.88,15.17,5.57,3.3,3.74,4.98,9.02,4.98,15.71v73.08h27.92v-78.08c0-12.95-3.74-23.14-11.1-30.28Z"/>
          <path class="cls-3" d="M722.82,168.6c-5.86-2.5-12.62-3.77-20.14-3.77-11.64,0-22.06,2.61-30.97,7.75-8.91,5.15-15.89,12.4-20.73,21.54-4.83,9.12-7.28,19.72-7.28,31.51,0,19.45,5.58,34.61,16.57,45.06,10.98,10.44,25.78,15.74,44.01,15.74,14.76,0,30.18-2.93,45.82-8.7l.66-.24V116.62h-27.93v51.97ZM722.82,259.48c-5.04,1.76-11.04,2.66-17.87,2.66-9.37,0-17.12-3.15-23.03-9.35-5.93-6.22-8.93-15.13-8.93-26.48s2.98-20.06,8.85-26.74c5.83-6.64,13.61-10,23.12-10,6.55,0,12.56,1.39,17.87,4.15v65.77Z"/>
          <path class="cls-3" d="M827.42,213.78l-5.24-2.05c-7.93-2.99-13.38-5.44-16.17-7.29-2.6-1.71-3.87-3.93-3.87-6.78,0-2.64,1.71-4.76,5.24-6.49,3.71-1.82,8.96-2.74,15.59-2.74,4.75,0,9.81.57,15.02,1.68,5.2,1.11,9.58,2.43,13,3.92l1.4.61v-24.48l-.62-.26c-3.37-1.38-7.84-2.58-13.27-3.58-5.42-.99-11.34-1.49-17.57-1.49-9.63,0-18.03,1.48-24.95,4.4-6.96,2.94-12.34,6.99-16,12.05-3.67,5.08-5.53,10.82-5.53,17.07,0,8.72,2.66,15.88,7.9,21.28,5.16,5.32,13.9,10.18,25.97,14.46,8.94,3.13,15.01,5.91,18.02,8.26,2.88,2.25,4.28,5.19,4.28,8.99,0,3.43-1.77,6.12-5.41,8.23-3.77,2.17-8.96,3.28-15.42,3.28-5.64,0-11.75-.9-18.15-2.69-6.4-1.79-11.6-3.89-15.43-6.26l-1.53-.94v26.32l.6.26c10.39,4.58,22.38,6.91,35.65,6.91,15.01,0,26.77-3.21,34.95-9.53,8.26-6.39,12.44-15.07,12.44-25.8,0-9.6-2.38-17.24-7.06-22.71-4.64-5.41-12.65-10.32-23.82-14.6"/>
          <path class="cls-3" d="M1018.3,172.11c-8.75-4.83-18.78-7.29-29.82-7.29s-21.55,2.41-30.38,7.17c-8.85,4.77-15.9,11.83-20.98,20.97-5.06,9.13-7.63,20.11-7.63,32.66s2.53,23.3,7.51,32.43c4.99,9.15,12.01,16.24,20.86,21.09,8.82,4.84,18.82,7.29,29.7,7.29s21.37-2.53,30.28-7.52c8.92-5,16.01-12.24,21.08-21.54,5.06-9.28,7.63-20.42,7.63-33.11,0-11.79-2.53-22.32-7.52-31.3-5-8.99-11.98-16.01-20.74-20.86M988.03,261.91c-8.45,0-15.5-3.21-20.96-9.54-5.5-6.38-8.28-15.45-8.28-26.97s2.78-20.88,8.27-26.95c5.46-6.04,12.59-9.11,21.2-9.11s15.83,3.1,21.07,9.2c5.27,6.15,7.94,14.96,7.94,26.18,0,11.97-2.79,21.28-8.28,27.65-5.46,6.33-12.51,9.54-20.96,9.54"/>
          <path class="cls-3" d="M1112.12,143.42c2.74-3.03,6.74-4.56,11.88-4.56,3.52,0,6.79.45,9.72,1.32l1.29.39v-24.11l-.66-.24c-1.73-.63-4.1-1.14-7.03-1.53-2.93-.38-5.8-.58-8.54-.58-11.9,0-21.44,3.7-28.35,11-6.9,7.28-10.39,17.16-10.39,29.34v12.87h-21.37v22.24h21.37v94.36h27.93v-94.36h26.15v-22.24h-26.15v-10.37c0-5.93,1.4-10.48,4.17-13.54"/>
        </g>
      </g>
    </g>
  </g>
</svg>